<svg xmlns="http://www.w3.org/2000/svg" xmlns:xlink="http://www.w3.org/1999/xlink" viewBox="0,0,256,256" width="48px" height="48px" fill-rule="nonzero"><g fill="#f3f3f3" fill-rule="nonzero" stroke="none" stroke-width="1" stroke-linecap="butt" stroke-linejoin="miter" stroke-miterlimit="10" stroke-dasharray="" stroke-dashoffset="0" font-family="none" font-weight="none" font-size="none" text-anchor="none" style="mix-blend-mode: normal"><g transform="scale(5.33333,5.33333)"><path fill="#7677a4" d="M7.5,6c-2.481,0 -4.5,2.019 -4.5,4.5v25c0,3.584 2.916,6.5 6.5,6.5h29c3.584,0 6.5,-2.916 6.5,-6.5v-17c0,-2.31 -1.756,-4.19722 -4,-4.44922v20.44922c0,0.828 -0.672,1.5 -1.5,1.5c-0.828,0 -1.5,-0.672 -1.5,-1.5v-24c0,-2.481 -2.019,-4.5 -4.5,-4.5zM10.5,15h20c0.829,0 1.5,0.672 1.5,1.5c0,0.828 -0.671,1.5 -1.5,1.5h-20c-0.829,0 -1.5,-0.672 -1.5,-1.5c0,-0.828 0.671,-1.5 1.5,-1.5zM10.5,23h7c0.829,0 1.5,0.672 1.5,1.5v7c0,0.828 -0.671,1.5 -1.5,1.5h-7c-0.829,0 -1.5,-0.672 -1.5,-1.5v-7c0,-0.828 0.671,-1.5 1.5,-1.5zM23.5,23h7c0.829,0 1.5,0.672 1.5,1.5c0,0.828 -0.671,1.5 -1.5,1.5h-7c-0.829,0 -1.5,-0.672 -1.5,-1.5c0,-0.828 0.671,-1.5 1.5,-1.5zM12,26v4h4v-4zM23.5,30h7c0.829,0 1.5,0.672 1.5,1.5c0,0.828 -0.671,1.5 -1.5,1.5h-7c-0.829,0 -1.5,-0.672 -1.5,-1.5c0,-0.828 0.671,-1.5 1.5,-1.5z"></path></g></g></svg>