<?xml version="1.0" standalone="no"?>
<!DOCTYPE svg PUBLIC "-//W3C//DTD SVG 20010904//EN"
 "http://www.w3.org/TR/2001/REC-SVG-20010904/DTD/svg10.dtd">
<svg version="1.0" xmlns="http://www.w3.org/2000/svg"
 width="250pt" height="300pt" viewBox="147 110 330 370"
 preserveAspectRatio="xMidYMid meet">

<g transform="translate(0.000000,640.000000) scale(0.100000,-0.100000)"
fill="#ffffff" stroke="none">
<path d="M5951 6384 c0 -11 3 -14 6 -6 3 7 2 16 -1 19 -3 4 -6 -2 -5 -13z"/>
<path d="M6037 6379 c-3 -9 -19 -20 -37 -24 -28 -6 -31 -10 -26 -33 3 -15 3
-21 0 -14 -3 6 -12 12 -19 12 -7 0 -15 6 -18 13 -2 6 -2 2 -1 -10 2 -12 0 -25
-6 -28 -5 -3 -10 -16 -11 -28 0 -12 -3 -16 -6 -9 -8 21 -32 14 -26 -8 4 -15
11 -19 25 -14 12 3 27 -1 38 -11 24 -21 42 -11 34 19 -5 21 0 25 45 40 62 20
60 20 54 -4 -4 -16 -14 -20 -44 -20 -38 0 -52 -12 -26 -24 10 -5 10 -7 0 -12
-22 -10 -14 -26 10 -19 21 6 21 6 3 -9 -11 -9 -16 -16 -12 -16 14 0 -20 -28
-40 -33 -14 -3 -12 -5 8 -6 14 0 29 5 31 12 4 10 6 10 6 0 1 -7 8 -13 16 -13
8 0 15 -4 15 -9 0 -13 -98 -25 -113 -14 -7 6 -23 7 -37 3 l-25 -6 25 -7 c26
-7 54 -52 43 -69 -3 -6 -16 2 -28 16 -12 14 -25 23 -28 19 -4 -3 1 -11 10 -18
9 -7 13 -17 9 -24 -6 -9 -11 -9 -22 0 -7 6 -20 9 -28 6 -7 -3 -19 0 -25 6 -8
8 -11 -1 -10 -33 1 -25 3 -37 6 -27 5 21 33 23 33 2 0 -8 -4 -15 -10 -15 -5 0
-10 -7 -10 -15 0 -18 12 -19 28 -3 9 9 15 9 24 0 10 -10 5 -15 -20 -24 -18 -7
-32 -18 -32 -25 0 -16 5 -16 31 0 17 10 23 10 26 0 3 -7 9 -13 14 -13 12 0 11
77 -1 85 -6 4 -8 11 -4 16 13 22 33 -12 27 -47 -6 -34 -5 -34 31 -34 20 0 36
4 36 8 0 5 12 7 28 5 21 -3 31 2 44 24 12 19 18 23 18 11 0 -9 4 -18 9 -20 6
-2 7 -22 4 -46 -6 -41 -7 -43 -34 -37 -22 5 -29 3 -29 -9 0 -10 9 -14 28 -14
15 1 37 -2 50 -6 13 -5 22 -3 22 3 0 6 9 11 20 11 16 0 20 7 20 34 0 18 7 39
15 46 15 12 35 6 35 -12 0 -7 -6 -6 -15 2 -13 11 -15 7 -15 -24 0 -20 3 -36 8
-36 15 0 30 16 35 35 3 13 5 9 6 -12 1 -29 -2 -33 -26 -34 -25 -2 -26 -2 -5
-6 34 -6 64 24 57 56 -3 14 -1 33 4 40 8 12 11 9 16 -11 5 -19 14 -28 33 -30
38 -4 29 -21 -18 -36 -22 -8 -40 -19 -40 -25 0 -8 4 -7 12 1 20 20 28 14 28
-22 0 -30 3 -33 21 -29 20 6 20 7 5 18 -22 16 -21 45 2 45 10 0 28 -9 39 -20
22 -20 22 -20 20 3 0 12 -6 25 -12 30 -6 4 -5 10 5 17 13 9 13 11 0 20 -9 6
-10 10 -3 10 9 0 12 64 13 250 l1 250 -121 0 c-74 0 -120 -4 -120 -10 0 -6 -8
-5 -20 2 -17 11 -22 10 -30 -2 -5 -8 -10 -10 -10 -4 0 19 -58 13 -63 -7z m46
-146 c-7 -2 -21 -2 -30 0 -10 3 -4 5 12 5 17 0 24 -2 18 -5z m67 -8 c0 -8 -12
-21 -28 -29 -23 -12 -30 -12 -47 0 -18 13 -18 14 8 14 14 0 32 7 39 15 17 19
28 19 28 0z m34 -7 c3 -15 0 -27 -9 -34 -8 -6 -15 -17 -15 -24 0 -7 -2 -11 -5
-8 -8 8 6 88 15 88 4 0 10 -10 14 -22z m-110 -45 c-5 -5 -11 -12 -15 -16 -3
-4 -12 -1 -19 8 -11 13 -9 15 15 15 16 0 24 -3 19 -7z m176 -53 c0 -5 -2 -10
-4 -10 -3 0 -8 5 -11 10 -3 6 -1 10 4 10 6 0 11 -4 11 -10z m-130 -25 c0 -8
-4 -15 -10 -15 -5 0 -10 7 -10 15 0 8 5 15 10 15 6 0 10 -7 10 -15z m-130 -9
c0 -11 -19 -15 -25 -6 -3 5 1 10 9 10 9 0 16 -2 16 -4z m90 -37 c0 -14 -37
-10 -43 4 -4 10 2 13 19 9 13 -2 24 -8 24 -13z m81 8 c-1 -12 -15 -9 -19 4 -3
6 1 10 8 8 6 -3 11 -8 11 -12z m119 -17 c0 -5 -4 -10 -10 -10 -5 0 -10 5 -10
10 0 6 5 10 10 10 6 0 10 -4 10 -10z m-290 -63 c0 -4 5 -5 10 -2 6 3 10 2 10
-3 0 -6 -6 -12 -14 -15 -20 -8 -50 28 -41 50 6 17 7 17 21 -1 8 -11 14 -24 14
-29z m130 35 c0 -13 -12 -22 -22 -16 -10 6 -1 24 13 24 5 0 9 -4 9 -8z m136
-49 c-11 -11 -19 6 -11 24 8 17 8 17 12 0 3 -10 2 -21 -1 -24z m-220 0 c-10
-10 -19 5 -10 18 6 11 8 11 12 0 2 -7 1 -15 -2 -18z m354 23 c0 -3 -4 -8 -10
-11 -5 -3 -10 -1 -10 4 0 6 5 11 10 11 6 0 10 -2 10 -4z m-258 -38 c-7 -7 -12
-8 -12 -2 0 14 12 26 19 19 2 -3 -1 -11 -7 -17z m203 13 c3 -5 1 -12 -5 -16
-5 -3 -10 1 -10 9 0 18 6 21 15 7z m45 -11 c0 -5 -4 -10 -10 -10 -5 0 -10 5
-10 10 0 6 5 10 10 10 6 0 10 -4 10 -10z m-395 -20 c3 -5 1 -10 -4 -10 -6 0
-11 5 -11 10 0 6 2 10 4 10 3 0 8 -4 11 -10z m172 -37 c-3 -10 -5 -4 -5 12 0
17 2 24 5 18 2 -7 2 -21 0 -30z m-17 -28 c0 -14 -4 -25 -10 -25 -5 0 -10 11
-10 25 0 14 5 25 10 25 6 0 10 -11 10 -25z"/>
<path d="M5810 6340 c0 -5 5 -10 11 -10 5 0 7 5 4 10 -3 6 -8 10 -11 10 -2 0
-4 -4 -4 -10z"/>
<path d="M5860 6337 c0 -24 4 -32 14 -29 4 1 14 -5 21 -14 9 -13 14 -14 19 -5
5 7 6 13 5 14 -2 1 -16 13 -31 26 -23 20 -28 22 -28 8z"/>
<path d="M5850 6281 c0 -5 5 -13 10 -16 6 -3 10 -2 10 4 0 5 -4 13 -10 16 -5
3 -10 2 -10 -4z"/>
<path d="M5735 6120 c-3 -5 1 -10 9 -10 9 0 16 -7 16 -17 0 -9 3 -14 6 -10 8
8 -5 47 -16 47 -5 0 -12 -4 -15 -10z"/>
<path d="M5812 6100 c0 -14 2 -19 5 -12 2 6 2 18 0 25 -3 6 -5 1 -5 -13z"/>
<path d="M5700 6090 c0 -5 5 -10 10 -10 6 0 10 5 10 10 0 6 -4 10 -10 10 -5 0
-10 -4 -10 -10z"/>
<path d="M5840 6080 c0 -19 3 -21 12 -12 9 9 9 15 0 24 -9 9 -12 7 -12 -12z"/>
<path d="M5780 6031 c0 -11 -3 -26 -6 -35 -4 -11 -1 -16 10 -16 12 0 16 10 16
35 0 19 -4 35 -10 35 -5 0 -10 -9 -10 -19z"/>
<path d="M5707 5977 c-9 -15 -17 -33 -17 -40 0 -16 84 -42 101 -32 5 4 12 -1
15 -9 3 -9 13 -16 21 -16 9 0 11 5 6 13 -4 6 -8 18 -9 25 -2 8 -6 21 -10 30
-6 14 -8 13 -13 -8 -8 -28 -41 -35 -49 -10 -5 13 -3 13 11 1 15 -12 17 -11 17
7 0 29 -20 39 -36 18 -7 -10 -18 -15 -24 -11 -8 5 -8 10 0 21 7 7 10 19 8 25
-2 6 -12 0 -21 -14z"/>
<path d="M5694 5887 c1 -17 6 -23 19 -19 20 5 22 13 5 30 -18 18 -26 15 -24
-11z"/>
<path d="M6014 5895 c-10 -8 -36 -15 -56 -15 -21 0 -38 -4 -38 -10 0 -5 -11
-12 -25 -16 -14 -4 -24 -8 -21 -11 8 -8 131 20 142 33 7 8 15 9 25 3 23 -15
39 -10 39 11 0 24 -36 27 -66 5z"/>
<path d="M5627 5893 c-2 -5 -1 -19 4 -33 7 -24 7 -24 8 -2 1 12 6 22 12 22 5
0 7 5 4 10 -7 12 -22 13 -28 3z"/>
<path d="M5765 5870 c3 -5 10 -10 16 -10 5 0 9 5 9 10 0 6 -7 10 -16 10 -8 0
-12 -4 -9 -10z"/>
<path d="M5833 5873 c-14 -5 -18 -23 -5 -23 5 0 17 7 28 15 14 11 15 14 4 14
-8 0 -21 -3 -27 -6z"/>
<path d="M5602 5850 c0 -14 2 -19 5 -12 2 6 2 18 0 25 -3 6 -5 1 -5 -13z"/>
<path d="M5560 5826 c0 -9 5 -16 10 -16 6 0 10 4 10 9 0 6 -4 13 -10 16 -5 3
-10 -1 -10 -9z"/>
<path d="M5920 5820 c0 -5 6 -10 13 -10 22 0 46 -37 41 -62 -5 -22 -5 -22 10
-4 9 11 16 28 16 38 0 11 5 15 14 12 8 -3 17 0 22 7 5 9 -1 11 -23 6 -19 -4
-37 -1 -49 8 -22 17 -44 19 -44 5z"/>
<path d="M5400 5800 c0 -11 5 -20 10 -20 6 0 10 9 10 20 0 11 -4 20 -10 20 -5
0 -10 -9 -10 -20z"/>
<path d="M5680 5806 c0 -9 5 -16 10 -16 6 0 10 4 10 9 0 6 -4 13 -10 16 -5 3
-10 -1 -10 -9z"/>
<path d="M5765 5800 c3 -5 10 -10 16 -10 5 0 9 5 9 10 0 6 -7 10 -16 10 -8 0
-12 -4 -9 -10z"/>
<path d="M6075 5800 c3 -5 11 -10 16 -10 6 0 7 5 4 10 -3 6 -11 10 -16 10 -6
0 -7 -4 -4 -10z"/>
<path d="M6225 5800 c-3 -5 -1 -10 4 -10 6 0 11 5 11 10 0 6 -2 10 -4 10 -3 0
-8 -4 -11 -10z"/>
<path d="M6270 5790 c0 -11 5 -20 10 -20 6 0 10 9 10 20 0 11 -4 20 -10 20 -5
0 -10 -9 -10 -20z"/>
<path d="M6110 5791 c0 -5 12 -13 27 -18 l28 -10 -28 -17 c-15 -10 -27 -22
-27 -26 0 -12 64 10 91 32 l24 19 -23 -6 c-17 -5 -29 -1 -43 14 -20 21 -49 28
-49 12z"/>
<path d="M5931 5766 c-10 -12 -8 -13 8 -9 12 3 18 9 15 14 -7 12 -10 11 -23
-5z"/>
<path d="M6360 5770 c0 -5 7 -10 16 -10 8 0 12 5 9 10 -3 6 -10 10 -16 10 -5
0 -9 -4 -9 -10z"/>
<path d="M4770 5759 c0 -5 5 -7 10 -4 6 3 10 8 10 11 0 2 -4 4 -10 4 -5 0 -10
-5 -10 -11z"/>
<path d="M4890 5755 c-7 -9 -11 -18 -8 -20 3 -3 11 1 18 10 7 9 11 18 8 20 -3
3 -11 -1 -18 -10z"/>
<path d="M6030 5761 c0 -11 51 -21 64 -13 5 3 1 9 -10 13 -27 11 -54 11 -54 0z"/>
<path d="M6326 5751 c-7 -11 22 -23 35 -15 5 3 7 10 4 15 -8 12 -32 12 -39 0z"/>
<path d="M6226 5741 c-4 -7 -5 -15 -2 -18 9 -9 19 4 14 18 -4 11 -6 11 -12 0z"/>
<path d="M5860 5730 c0 -5 5 -10 11 -10 5 0 7 5 4 10 -3 6 -8 10 -11 10 -2 0
-4 -4 -4 -10z"/>
<path d="M5913 5718 c-2 -16 1 -18 10 -9 7 7 8 14 1 21 -6 6 -10 2 -11 -12z"/>
<path d="M6290 5720 c0 -5 7 -10 15 -10 8 0 15 5 15 10 0 6 -7 10 -15 10 -8 0
-15 -4 -15 -10z"/>
<path d="M4100 5330 c-63 -10 -194 -29 -290 -44 -358 -53 -670 -101 -970 -152
-80 -13 -156 -25 -170 -27 -95 -14 -245 -38 -289 -47 -30 -5 -58 -10 -62 -10
-5 0 -9 27 -9 59 0 66 -10 79 -41 57 -12 -8 -28 -12 -36 -9 -21 8 -33 -15 -33
-68 0 -26 -3 -60 -6 -76 l-6 -30 -26 25 -25 26 -15 -22 c-8 -12 -21 -22 -28
-22 -33 0 -92 -33 -98 -54 -6 -23 -42 -40 -113 -51 -34 -5 -45 -3 -62 14 -50
50 -133 29 -159 -41 -13 -33 -12 -41 4 -75 14 -27 30 -42 57 -52 35 -13 42
-13 73 4 18 10 39 31 46 46 11 25 19 28 78 34 36 4 72 9 81 11 11 3 24 -8 38
-31 26 -45 26 -50 0 -76 -16 -16 -21 -36 -24 -97 -1 -42 -10 -110 -19 -150
-26 -117 -21 -221 15 -322 17 -47 33 -94 36 -105 3 -11 25 -66 49 -123 38 -90
44 -112 44 -175 0 -40 -4 -99 -10 -132 -5 -33 -11 -79 -14 -103 -2 -24 -11
-53 -19 -65 -8 -12 -18 -62 -22 -110 -4 -49 -16 -119 -26 -155 -34 -118 -48
-195 -38 -214 5 -9 7 -41 3 -70 -3 -29 -5 -143 -5 -253 0 -124 -5 -230 -14
-280 -23 -134 -30 -310 -14 -357 10 -32 11 -42 1 -46 -7 -2 -12 -12 -12 -22 0
-10 -6 -25 -14 -33 -8 -7 -20 -32 -26 -54 -8 -25 -21 -45 -35 -51 -14 -6 -28
-26 -35 -49 -28 -90 -30 -93 -70 -93 -21 0 -40 4 -42 9 -2 5 -34 12 -72 16
-50 6 -67 5 -62 -4 4 -6 1 -11 -8 -11 -8 0 -16 5 -18 12 -3 8 -16 8 -51 -3
l-47 -13 0 -58 0 -58 153 -1 c83 -1 179 -3 212 -4 33 -2 397 -5 808 -8 412 -3
751 -7 753 -10 3 -3 21 -1 40 3 19 5 37 4 40 -1 3 -5 11 -6 17 -2 6 4 106 6
222 4 558 -9 551 -9 693 19 49 10 65 10 77 0 19 -16 46 -5 39 15 -5 11 -2 14
10 9 14 -5 16 0 14 37 -3 38 0 44 17 44 11 0 29 8 39 18 14 12 37 17 82 17 49
0 65 4 73 18 9 15 10 15 11 -5 0 -13 5 -23 10 -23 6 0 10 -7 10 -16 0 -14 10
-16 73 -12 90 7 134 22 118 42 -9 11 -33 13 -101 10 -73 -3 -88 -1 -84 10 4
10 23 13 75 11 38 -2 72 1 75 6 3 5 16 9 30 9 13 0 24 4 24 8 0 5 -27 6 -60 4
-42 -3 -60 -1 -60 7 0 9 -13 10 -44 6 -25 -4 -67 -7 -95 -8 -32 0 -52 -5 -55
-14 -3 -7 -20 -13 -38 -13 -25 0 -30 -3 -18 -10 11 -8 1 -10 -35 -8 -52 2 -75
15 -75 42 0 9 -6 16 -14 16 -8 0 -16 6 -19 14 -7 17 -58 27 -73 15 -11 -9 -17
-59 -7 -59 2 0 11 7 20 15 17 18 44 17 50 -1 8 -24 -28 -45 -71 -42 -33 2 -40
7 -38 20 4 23 -3 23 -27 -1 -15 -15 -31 -18 -90 -16 -39 1 -74 -2 -77 -7 -3
-5 -14 2 -25 16 -11 14 -28 28 -39 31 -22 7 -27 45 -12 87 5 13 6 63 3 112 -6
85 -5 89 18 107 23 19 24 20 17 147 -4 70 -11 174 -17 232 -5 58 -11 204 -13
325 -3 158 -9 235 -20 275 -10 33 -16 96 -16 160 0 58 -9 154 -20 215 -13 79
-16 113 -8 123 7 8 9 47 5 115 -4 61 -2 118 4 142 9 35 30 148 46 242 4 26 18
41 75 80 39 26 77 61 85 77 9 17 37 53 62 80 51 55 76 109 92 202 19 110 22
183 9 215 -17 39 -3 66 51 99 21 14 39 30 39 36 0 19 -43 24 -74 9 -38 -20
-40 -19 -22 7 24 34 20 50 -11 46 -18 -2 -36 -15 -51 -38 l-24 -35 7 48 c7 46
7 47 -18 47 -22 0 -28 -7 -38 -42 -21 -72 -29 -73 -44 -5 -4 22 -11 28 -28 25
-21 -3 -22 -8 -22 -85 0 -76 -2 -84 -28 -111 -28 -29 -29 -62 -1 -62 33 0 -1
-91 -56 -146 -30 -31 -53 -44 -83 -49 -22 -4 -60 -18 -85 -32 -49 -28 -91 -26
-128 5 -20 17 -20 23 -12 73 6 29 16 72 24 94 8 23 14 47 14 54 0 26 -43 99
-64 111 -28 15 -170 17 -187 3 -8 -5 -25 -13 -39 -17 -48 -12 -61 -29 -49 -65
8 -24 8 -39 1 -56 -7 -16 -8 -44 -2 -82 19 -131 20 -163 5 -163 -8 0 -15 -4
-15 -9 0 -17 -73 -21 -91 -5 -17 16 -43 24 -100 31 -26 3 -48 17 -74 43 l-38
39 17 93 c10 51 22 108 28 126 8 28 7 35 -7 46 -26 19 -13 43 58 113 130 129
120 122 215 133 48 5 204 25 347 45 143 20 292 41 330 45 75 9 122 27 410 160
33 15 69 30 79 34 44 15 -17 31 -304 76 -144 23 -122 23 -270 0z m145 -21 c-8
-12 -45 -12 -45 0 0 10 30 20 43 14 4 -3 5 -9 2 -14z m-990 -149 c3 -5 -1 -10
-10 -10 -9 0 -13 5 -10 10 3 6 8 10 10 10 2 0 7 -4 10 -10z m-595 -90 c0 -5
-2 -10 -4 -10 -3 0 -8 5 -11 10 -3 6 -1 10 4 10 6 0 11 -4 11 -10z m414 -210
c-7 -21 -11 -52 -8 -67 4 -19 -3 -48 -20 -86 -24 -54 -27 -57 -46 -45 -17 10
-20 19 -15 45 5 27 2 35 -20 49 -22 14 -25 23 -25 74 l0 57 68 9 c37 5 70 8
73 7 4 -2 1 -21 -7 -43z m-184 -7 c0 -26 -1 -26 -14 -7 -11 14 -11 21 -3 26
17 11 17 11 17 -19z m-97 -15 c6 -21 2 -36 -7 -27 -10 11 -16 49 -8 49 5 0 12
-10 15 -22z m-83 -3 c21 -25 1 -31 -22 -7 -18 18 -19 22 -6 22 8 0 21 -7 28
-15z m-80 -14 c0 -32 40 -69 120 -110 l75 -38 -4 -62 c-2 -47 1 -67 13 -80 9
-9 25 -44 36 -76 18 -54 19 -61 5 -103 -18 -52 -54 -101 -75 -102 -8 0 -26 -6
-40 -14 -14 -7 -46 -25 -72 -39 l-48 -25 0 41 c0 23 7 51 15 61 17 23 20 72 5
81 -5 3 -10 24 -10 45 0 33 -6 44 -42 74 -31 27 -51 36 -77 36 -46 0 -114 -34
-131 -65 -20 -38 -18 -206 3 -239 9 -14 17 -35 17 -46 0 -19 -4 -21 -32 -14
-18 4 -49 8 -68 9 -19 0 -41 4 -47 8 -22 14 -36 90 -39 217 -2 69 -5 155 -8
193 -4 64 -3 67 18 67 39 0 54 21 58 82 3 32 7 60 10 64 5 5 107 23 248 43 30
5 58 9 63 10 4 0 7 -8 7 -18z m-350 -21 c0 -11 -4 -20 -9 -20 -5 0 -7 9 -4 20
3 11 7 20 9 20 2 0 4 -9 4 -20z m849 -667 c20 -15 42 -33 50 -40 7 -8 30 -22
51 -33 33 -17 39 -26 45 -62 7 -49 48 -211 70 -278 14 -42 14 -46 -5 -59 -27
-18 -25 -50 6 -82 20 -21 23 -31 16 -45 -21 -42 -43 -199 -47 -349 -3 -88 -7
-379 -10 -646 -5 -472 -4 -487 14 -492 15 -3 21 -17 26 -53 3 -27 13 -89 21
-138 8 -49 14 -109 14 -133 0 -32 4 -43 15 -43 8 0 15 -4 15 -10 0 -14 -47
-13 -52 1 -5 16 -109 13 -120 -3 -6 -10 -10 -10 -17 1 -6 9 -14 10 -27 3 -26
-14 -117 -5 -130 13 -6 8 -20 15 -31 15 -17 0 -21 9 -27 61 -9 93 -7 165 5
193 10 20 9 34 -4 68 -19 50 -42 648 -52 1378 -7 513 -5 537 72 674 26 47 52
86 57 86 5 0 25 -12 45 -27z m-782 -350 c-3 -10 -5 -4 -5 12 0 17 2 24 5 18 2
-7 2 -21 0 -30z m10 -75 c-3 -7 -5 -2 -5 12 0 14 2 19 5 13 2 -7 2 -19 0 -25z
m411 -369 c-3 -8 -7 -3 -11 10 -4 17 -3 21 5 13 5 -5 8 -16 6 -23z m1279 -291
c-3 -8 -6 -5 -6 6 -1 11 2 17 5 13 3 -3 4 -12 1 -19z m31 -428 c0 -30 -2 -47
-5 -37 -2 9 -12 17 -21 17 -13 0 -14 2 -4 9 11 7 11 9 -1 14 -21 8 -20 103 1
145 l17 33 6 -63 c4 -35 7 -88 7 -118z m-1768 114 c0 -8 -4 -12 -10 -9 -5 3
-10 13 -10 21 0 8 5 12 10 9 6 -3 10 -13 10 -21z m425 -95 c-10 -15 -25 -10
-19 6 4 8 10 12 15 9 5 -3 7 -10 4 -15z m1339 -88 c-7 -8 -35 9 -29 19 4 6 11
5 20 -3 7 -6 11 -14 9 -16z m-1731 -40 c3 -14 0 -17 -13 -14 -9 2 -17 11 -17
19 0 21 24 17 30 -5z m211 -27 c3 -8 2 -12 -4 -9 -6 3 -10 10 -10 16 0 14 7
11 14 -7z m96 -14 c0 -5 -2 -10 -4 -10 -3 0 -8 5 -11 10 -3 6 -1 10 4 10 6 0
11 -4 11 -10z m1442 -62 c1 -31 0 -54 -4 -51 -5 2 -8 20 -8 39 0 19 -4 34 -10
34 -5 0 -10 7 -10 15 0 8 5 15 11 15 5 0 7 6 3 13 -5 8 -4 9 4 2 5 -5 12 -35
14 -67z m-1360 21 c-4 -24 -1 -27 18 -22 13 3 19 11 16 19 -8 20 4 17 20 -3
19 -26 17 -31 -10 -26 -13 3 -27 0 -30 -6 -5 -7 -14 -7 -29 2 -12 6 -23 12
-24 12 -1 0 -5 13 -8 28 -7 26 -5 27 22 25 25 -2 28 -5 25 -29z m893 20 c11
-17 -1 -21 -15 -4 -8 9 -8 15 -2 15 6 0 14 -5 17 -11z m-885 -105 c0 -8 -4
-14 -9 -14 -5 0 -8 -14 -6 -32 l5 -32 -17 25 c-9 13 -20 26 -25 29 -4 4 -1 16
7 28 16 22 45 20 45 -4z m70 12 c0 -3 -4 -8 -10 -11 -5 -3 -10 -1 -10 4 0 6 5
11 10 11 6 0 10 -2 10 -4z m-40 -21 c0 -8 -4 -15 -10 -15 -5 0 -7 7 -4 15 4 8
8 15 10 15 2 0 4 -7 4 -15z m1314 -11 c11 -4 16 -19 16 -46 0 -33 -3 -39 -16
-34 -9 3 -20 6 -26 6 -6 0 -6 6 2 15 7 8 17 12 24 9 6 -3 3 1 -6 9 -10 8 -18
22 -18 31 0 18 2 19 24 10z m-1374 -42 c0 -13 -12 -22 -22 -16 -10 6 -1 24 13
24 5 0 9 -4 9 -8z m1320 -12 c0 -11 -4 -20 -9 -20 -5 0 -7 9 -4 20 3 11 7 20
9 20 2 0 4 -9 4 -20z m-1200 -21 c0 -11 -4 -17 -10 -14 -5 3 -10 13 -10 21 0
8 5 14 10 14 6 0 10 -9 10 -21z m-146 -14 c-4 -8 -10 -15 -15 -15 -5 0 -9 7
-9 15 0 8 7 15 15 15 9 0 12 -6 9 -15z m38 -35 c6 0 7 -7 3 -17 -4 -10 -7 -26
-7 -35 1 -19 -7 -22 -23 -10 -12 8 -11 47 1 82 8 25 9 25 12 3 2 -13 8 -23 14
-23z m-698 -91 c4 -8 3 -26 -2 -39 -9 -23 -9 -23 -18 -5 -6 11 -8 54 -5 95 l5
75 7 -55 c4 -30 10 -62 13 -71z m797 89 c-5 -13 -9 -27 -9 -31 -1 -22 -12 -17
-12 4 0 14 5 30 12 37 17 17 19 15 9 -10z m715 -13 c4 -8 12 -15 20 -15 8 0
14 -3 14 -7 1 -5 3 -51 6 -104 4 -65 2 -99 -5 -103 -7 -5 -11 7 -11 34 0 50
-28 178 -41 185 -12 8 -11 25 1 25 6 0 13 -7 16 -15z m-1311 -5 c-3 -5 -11
-10 -16 -10 -6 0 -7 5 -4 10 3 6 11 10 16 10 6 0 7 -4 4 -10z m1242 -72 c-3
-8 -6 -5 -6 6 -1 11 2 17 5 13 3 -3 4 -12 1 -19z m580 -34 c-10 -10 -29 17
-22 32 6 17 8 17 16 -5 5 -13 8 -25 6 -27z m-1300 2 c10 -10 -59 -36 -85 -32
-15 2 -30 5 -33 5 -4 1 -9 9 -12 20 -3 14 2 18 25 19 17 0 32 3 35 5 5 5 62
-9 70 -17z m1291 -33 c2 -11 -3 -27 -11 -35 -21 -21 -30 -55 -18 -75 6 -12 6
-24 -1 -37 -6 -11 -10 -42 -9 -69 0 -41 -2 -48 -15 -43 -9 3 -17 6 -19 6 -2 0
0 13 5 29 11 38 2 46 -21 19 -11 -11 -19 -16 -19 -10 0 6 5 14 10 17 6 4 8 11
4 16 -3 5 -10 7 -15 4 -13 -9 -11 12 6 79 8 32 22 64 30 73 8 8 15 21 15 29 0
22 17 16 24 -8 4 -19 7 -20 18 -9 10 11 10 14 1 18 -7 3 -13 9 -13 15 0 18 25
2 28 -19z m-1998 -24 c0 -11 -4 -18 -10 -14 -5 3 -7 12 -3 20 7 21 13 19 13
-6z m1725 -84 c6 -123 -3 -227 -19 -222 -6 2 -17 -3 -24 -12 -12 -14 -13 -13
-8 9 3 14 6 94 6 178 0 149 1 153 20 150 19 -3 21 -12 25 -103z m-1065 52 c-8
-37 0 -54 20 -42 6 3 10 1 10 -4 0 -6 -7 -11 -15 -11 -11 0 -12 -5 -5 -26 6
-14 9 -39 8 -55 -2 -24 -7 -29 -23 -27 -18 3 -20 11 -22 100 -2 85 0 97 15
100 23 6 22 7 12 -35z m800 -21 c0 -41 -16 -21 -24 29 -6 37 -5 39 9 21 8 -11
15 -33 15 -50z m77 -48 c-3 -8 -6 -5 -6 6 -1 11 2 17 5 13 3 -3 4 -12 1 -19z
m0 -65 c-3 -10 -5 -2 -5 17 0 19 2 27 5 18 2 -10 2 -26 0 -35z m340 -25 c-3
-8 -6 -5 -6 6 -1 11 2 17 5 13 3 -3 4 -12 1 -19z m-1637 -18 c0 -5 -7 -10 -16
-10 -8 0 -12 5 -9 10 3 6 10 10 16 10 5 0 9 -4 9 -10z m475 0 c3 -5 1 -10 -4
-10 -6 0 -11 5 -11 10 0 6 2 10 4 10 3 0 8 -4 11 -10z m834 -65 c4 -5 11 -18
14 -27 5 -15 4 -16 -13 -5 -16 9 -20 22 -19 57 2 34 3 38 6 15 3 -16 8 -34 12
-40z m370 32 c8 -10 7 -21 -2 -40 -13 -29 -44 -39 -33 -11 3 9 6 27 6 40 0 27
12 31 29 11z m748 -63 c-3 -3 -12 -4 -19 -1 -8 3 -5 6 6 6 11 1 17 -2 13 -5z
m-216 -47 c-13 -13 -26 -3 -16 12 3 6 11 8 17 5 6 -4 6 -10 -1 -17z m-721 3
c0 -5 -2 -10 -4 -10 -3 0 -8 5 -11 10 -3 6 -1 10 4 10 6 0 11 -4 11 -10z m175
0 c-3 -5 -13 -10 -21 -10 -8 0 -14 5 -14 10 0 6 9 10 21 10 11 0 17 -4 14 -10z
m401 -17 c-7 -7 -26 7 -26 19 0 6 6 6 15 -2 9 -7 13 -15 11 -17z m-91 7 c3 -5
-1 -10 -10 -10 -9 0 -13 5 -10 10 3 6 8 10 10 10 2 0 7 -4 10 -10z m120 0 c3
-5 1 -10 -4 -10 -6 0 -11 5 -11 10 0 6 2 10 4 10 3 0 8 -4 11 -10z m-125 -70
c0 -22 -3 -40 -8 -40 -4 0 -6 18 -4 40 2 22 6 40 8 40 2 0 4 -18 4 -40z m-86
-35 c3 -8 1 -15 -4 -15 -6 0 -10 7 -10 15 0 8 2 15 4 15 2 0 6 -7 10 -15z"/>
<path d="M3068 1729 c-17 -18 -17 -19 7 -19 18 0 25 5 25 20 0 25 -10 24 -32
-1z"/>
<path d="M3122 1733 c2 -12 15 -18 40 -20 30 -3 36 0 32 12 -4 10 -13 13 -24
10 -10 -3 -21 -1 -25 5 -10 16 -27 12 -23 -7z"/>
<path d="M5578 1828 c-16 -5 -28 -13 -28 -17 0 -4 -26 -7 -57 -7 -43 1 -57 -2
-55 -12 1 -8 -7 -16 -18 -19 -11 -3 -20 -10 -20 -15 0 -5 -4 -6 -10 -3 -5 3
-10 14 -10 24 0 11 -7 17 -22 16 -42 -3 -118 -29 -118 -41 0 -18 36 -23 65 -8
20 10 27 11 31 1 4 -12 84 -18 84 -6 0 3 11 4 25 1 14 -2 23 -7 20 -10 -15
-16 -175 -26 -175 -12 0 6 -5 8 -12 4 -7 -4 -27 -9 -46 -11 -31 -3 -33 -2 -26
19 3 13 10 25 15 28 4 3 4 12 -1 20 -9 15 -80 22 -80 8 0 -5 -6 -8 -12 -7 -23
5 -98 -13 -98 -22 0 -5 6 -18 12 -29 11 -16 9 -22 -7 -34 -19 -14 -19 -15 -2
-21 9 -4 17 -14 17 -22 0 -13 3 -13 16 -2 13 10 17 10 25 -2 8 -12 10 -12 19
1 7 12 10 12 10 1 0 -10 12 -12 48 -7 45 5 199 7 290 2 24 -1 46 2 48 6 2 3
20 4 39 1 21 -3 41 -1 50 7 12 10 24 9 61 -5 30 -11 48 -14 53 -7 9 15 81 27
81 13 0 -6 9 -11 20 -11 22 0 27 15 8 23 -18 7 144 13 195 8 4 -1 7 -11 8 -23
0 -22 1 -22 10 2 6 15 13 20 17 14 5 -8 19 -7 47 1 22 7 32 13 22 14 -13 1
-17 6 -12 20 4 15 0 19 -21 19 -14 0 -30 5 -34 12 -6 10 -15 9 -41 -4 -50 -25
-96 -11 -90 27 1 9 -13 9 -22 0 -4 -3 -2 -12 4 -19 17 -21 2 -23 -189 -27
-136 -2 -177 0 -190 11 -12 9 -13 15 -5 18 7 3 10 11 7 19 -5 11 1 12 30 3 26
-8 33 -14 24 -21 -10 -6 -9 -8 2 -4 8 2 15 10 15 18 0 8 13 16 30 19 17 3 31
12 33 21 4 23 -45 39 -80 27z m52 -17 c0 -5 -9 -11 -20 -14 -13 -3 -20 0 -20
9 0 8 9 14 20 14 11 0 20 -4 20 -9z m-160 -51 c0 -5 -4 -10 -9 -10 -6 0 -13 5
-16 10 -3 6 1 10 9 10 9 0 16 -4 16 -10z m-330 -40 c0 -5 -12 -10 -26 -10 -14
0 -23 4 -19 10 3 6 15 10 26 10 10 0 19 -4 19 -10z m900 6 c0 -3 -4 -8 -10
-11 -5 -3 -10 -1 -10 4 0 6 5 11 10 11 6 0 10 -2 10 -4z"/>
<path d="M5688 1833 c6 -2 18 -2 25 0 6 3 1 5 -13 5 -14 0 -19 -2 -12 -5z"/>
<path d="M5716 1803 c-4 -9 -3 -20 1 -24 4 -4 9 3 9 17 2 28 -1 31 -10 7z"/>
<path d="M5796 1805 c-3 -8 -12 -12 -20 -9 -8 3 -17 1 -21 -5 -3 -6 1 -11 9
-11 9 0 16 -9 16 -20 0 -11 5 -20 10 -20 6 0 10 5 10 11 0 8 4 8 13 1 15 -13
43 1 33 16 -3 6 -15 8 -26 5 -21 -5 -28 11 -10 22 6 3 10 10 10 16 0 14 -17
11 -24 -6z"/>
<path d="M4530 1790 c0 -5 7 -10 15 -10 8 0 15 5 15 10 0 6 -7 10 -15 10 -8 0
-15 -4 -15 -10z"/>
<path d="M4570 1785 c0 -8 5 -15 10 -15 6 0 10 7 10 15 0 8 -4 15 -10 15 -5 0
-10 -7 -10 -15z"/>
<path d="M4607 1780 c3 -11 9 -20 14 -20 11 0 11 3 3 24 -9 23 -23 20 -17 -4z"/>
<path d="M5936 1765 c-3 -8 -1 -15 4 -15 6 0 10 7 10 15 0 8 -2 15 -4 15 -2 0
-6 -7 -10 -15z"/>
<path d="M5966 1765 c-3 -9 0 -15 9 -15 8 0 15 7 15 15 0 8 -4 15 -9 15 -5 0
-11 -7 -15 -15z"/>
<path d="M6330 1755 c-10 -18 -22 -25 -43 -25 -22 0 -28 4 -23 15 3 8 1 15 -4
15 -6 0 -10 -7 -10 -15 0 -8 -8 -15 -18 -15 -10 0 -23 -5 -30 -12 -9 -9 -12
-8 -12 5 0 9 -3 17 -6 17 -11 0 -36 -31 -30 -37 3 -3 2 -11 -3 -17 -7 -8 2
-11 29 -11 21 0 34 3 28 6 -16 10 58 19 130 16 55 -2 62 -1 62 16 0 16 -5 19
-31 13 -27 -5 -30 -4 -19 9 8 10 9 15 2 15 -6 0 -9 7 -6 15 10 24 -1 17 -16
-10z"/>
<path d="M4465 1750 c3 -5 8 -10 11 -10 2 0 4 5 4 10 0 6 -5 10 -11 10 -5 0
-7 -4 -4 -10z"/>
<path d="M5635 1750 c28 -12 37 -12 30 0 -3 6 -16 10 -28 9 -21 0 -21 -1 -2
-9z"/>
<path d="M5705 1750 c-3 -5 1 -10 10 -10 9 0 13 5 10 10 -3 6 -8 10 -10 10 -2
0 -7 -4 -10 -10z"/>
<path d="M5750 1749 c0 -5 5 -7 10 -4 6 3 10 8 10 11 0 2 -4 4 -10 4 -5 0 -10
-5 -10 -11z"/>
<path d="M4600 1730 c0 -5 5 -10 10 -10 6 0 10 5 10 10 0 6 -4 10 -10 10 -5 0
-10 -4 -10 -10z"/>
<path d="M690 1721 c0 -4 11 -8 25 -9 14 -1 25 2 25 7 0 5 -11 9 -25 9 -14 0
-25 -3 -25 -7z"/>
<path d="M760 1720 c0 -5 5 -10 11 -10 5 0 7 5 4 10 -3 6 -8 10 -11 10 -2 0
-4 -4 -4 -10z"/>
<path d="M790 1720 c0 -5 5 -10 10 -10 6 0 10 5 10 10 0 6 -4 10 -10 10 -5 0
-10 -4 -10 -10z"/>
<path d="M835 1720 c3 -5 8 -10 11 -10 2 0 4 5 4 10 0 6 -5 10 -11 10 -5 0 -7
-4 -4 -10z"/>
<path d="M1035 1720 c-19 -8 -19 -9 3 -9 12 -1 22 4 22 9 0 6 -1 10 -2 9 -2 0
-12 -4 -23 -9z"/>
<path d="M1390 1710 c-12 -8 -10 -10 8 -10 13 0 20 4 17 10 -7 12 -6 12 -25 0z"/>
<path d="M120 1688 c0 -14 8 -18 35 -18 24 0 35 5 35 15 0 18 -36 20 -43 3 -4
-10 -8 -9 -16 2 -9 13 -11 13 -11 -2z"/>
<path d="M293 1683 c9 -2 25 -2 35 0 9 3 1 5 -18 5 -19 0 -27 -2 -17 -5z"/>
<path d="M650 1679 c-19 -5 -53 -11 -74 -14 -22 -3 -42 -7 -44 -10 -5 -5 99
-10 128 -6 8 1 50 2 93 2 44 0 93 7 110 14 31 14 29 14 -48 15 -44 1 -91 3
-105 4 -14 2 -41 -1 -60 -5z"/>
<path d="M900 1670 c0 -17 22 -22 36 -9 11 12 9 14 -11 15 -14 1 -25 -2 -25
-6z"/>
<path d="M1410 1670 c20 -13 33 -13 25 0 -3 6 -14 10 -23 10 -15 0 -15 -2 -2
-10z"/>
<path d="M1458 1673 c7 -3 16 -2 19 1 4 3 -2 6 -13 5 -11 0 -14 -3 -6 -6z"/>
<path d="M4666 1665 c10 -8 39 -14 64 -15 l45 0 -29 15 c-15 8 -44 15 -64 15
-34 0 -35 -1 -16 -15z"/>
<path d="M6064 1590 c-7 -31 -24 -42 -24 -15 0 11 -7 14 -26 11 -20 -4 -24 -2
-20 11 5 12 3 13 -6 6 -7 -6 -19 -12 -27 -15 -11 -3 -11 -6 1 -18 8 -8 17 -23
21 -32 7 -20 53 -25 59 -6 3 8 11 9 24 3 10 -5 30 -10 43 -11 19 -3 22 0 17
19 -3 12 -6 27 -6 34 0 14 -28 43 -41 43 -5 0 -12 -13 -15 -30z"/>
<path d="M5228 1603 c7 -3 16 -2 19 1 4 3 -2 6 -13 5 -11 0 -14 -3 -6 -6z"/>
<path d="M5526 1601 c-3 -5 1 -12 10 -15 27 -10 36 -7 20 9 -17 17 -23 18 -30
6z"/>
<path d="M6182 1580 c1 -16 7 -31 15 -34 8 -3 11 -10 8 -16 -3 -5 -2 -10 4
-10 5 0 13 5 16 10 4 7 12 7 25 0 26 -14 29 -13 27 10 -1 11 -5 20 -10 20 -5
0 -4 7 3 15 13 15 13 15 -30 28 -8 2 -20 -5 -27 -17 l-12 -21 -1 23 c0 12 -4
22 -9 22 -5 0 -9 -13 -9 -30z"/>
<path d="M5396 1585 c-4 -11 2 -15 27 -14 18 1 43 5 57 9 25 8 25 8 -5 10 -16
1 -40 3 -52 6 -12 2 -23 -2 -27 -11z"/>
<path d="M5750 1590 c0 -5 5 -10 11 -10 5 0 7 5 4 10 -3 6 -8 10 -11 10 -2 0
-4 -4 -4 -10z"/>
<path d="M5800 1590 c0 -5 10 -10 23 -10 18 0 19 2 7 10 -19 13 -30 13 -30 0z"/>
<path d="M5210 1580 c0 -5 4 -10 9 -10 6 0 13 5 16 10 3 6 -1 10 -9 10 -9 0
-16 -4 -16 -10z"/>
<path d="M5310 1579 c0 -5 5 -7 10 -4 6 3 10 8 10 11 0 2 -4 4 -10 4 -5 0 -10
-5 -10 -11z"/>
<path d="M5665 1580 c3 -5 12 -7 20 -3 21 7 19 13 -6 13 -11 0 -18 -4 -14 -10z"/>
<path d="M6347 1540 c-4 -17 0 -20 24 -20 22 0 29 5 29 20 0 14 -7 20 -24 20
-15 0 -26 -7 -29 -20z"/>
<path d="M95 1530 c-4 -6 8 -10 29 -10 20 0 36 5 36 10 0 6 -13 10 -29 10 -17
0 -33 -4 -36 -10z"/>
<path d="M72 1496 c-18 -6 -30 -14 -27 -18 4 -4 82 -7 174 -8 91 -1 195 -4
231 -7 78 -6 79 -6 153 0 55 4 76 11 65 22 -2 3 -128 7 -278 10 -150 3 -275 7
-279 9 -3 2 -21 -2 -39 -8z"/>
<path d="M5175 1490 c-3 -5 3 -10 15 -10 12 0 18 5 15 10 -3 6 -10 10 -15 10
-5 0 -12 -4 -15 -10z"/>
<path d="M5240 1489 c0 -5 7 -9 15 -9 8 0 18 0 22 -1 4 0 9 4 11 9 1 5 -9 10
-23 10 -14 0 -25 -4 -25 -9z"/>
<path d="M685 1481 c-10 -17 9 -20 166 -25 139 -4 191 3 161 22 -20 13 -319
15 -327 3z"/>
<path d="M3320 1480 c0 -5 4 -10 9 -10 6 0 13 5 16 10 3 6 -1 10 -9 10 -9 0
-16 -4 -16 -10z"/>
<path d="M3758 1483 c7 -3 16 -2 19 1 4 3 -2 6 -13 5 -11 0 -14 -3 -6 -6z"/>
<path d="M3853 1483 c9 -2 23 -2 30 0 6 3 -1 5 -18 5 -16 0 -22 -2 -12 -5z"/>
<path d="M4690 1479 c0 -5 5 -7 10 -4 6 3 10 8 10 11 0 2 -4 4 -10 4 -5 0 -10
-5 -10 -11z"/>
<path d="M4738 1483 c7 -3 16 -2 19 1 4 3 -2 6 -13 5 -11 0 -14 -3 -6 -6z"/>
<path d="M5473 1483 c9 -2 25 -2 35 0 9 3 1 5 -18 5 -19 0 -27 -2 -17 -5z"/>
<path d="M1044 1469 c-7 -13 9 -16 81 -19 39 -1 83 -3 100 -4 21 -1 30 4 33
17 3 15 -6 17 -103 15 -59 -1 -109 -6 -111 -9z"/>
<path d="M1348 1472 c-39 -2 -58 -7 -58 -16 0 -9 37 -12 160 -12 112 0 160 3
160 11 0 7 -32 12 -96 13 -52 1 -99 3 -102 4 -4 2 -33 2 -64 0z"/>
<path d="M1650 1450 c-9 -17 -8 -20 10 -20 11 0 20 5 20 10 0 6 10 10 22 10
27 0 21 5 -14 14 -21 5 -30 2 -38 -14z"/>
<path d="M1745 1460 c-3 -5 3 -10 15 -10 12 0 18 5 15 10 -3 6 -10 10 -15 10
-5 0 -12 -4 -15 -10z"/>
<path d="M1795 1460 c-3 -5 0 -12 7 -15 24 -8 123 0 123 10 0 14 -122 19 -130
5z"/>
<path d="M1948 1464 c-16 -15 -7 -25 20 -23 15 1 34 -1 42 -4 16 -6 52 -7 150
-5 37 0 106 -9 118 -16 6 -4 17 -4 24 0 6 4 38 7 70 6 51 -1 59 2 56 16 -4 19
11 17 -298 28 -96 3 -178 2 -182 -2z"/>
<path d="M2463 1443 c-3 -10 -7 -21 -9 -24 -2 -3 10 -6 26 -7 25 -1 30 3 30
24 0 29 -37 34 -47 7z"/>
<path d="M2563 1434 c-12 -26 -12 -26 19 -20 17 3 35 6 40 6 5 0 6 5 3 10 -3
6 0 10 7 11 16 1 -22 17 -42 18 -8 1 -20 -11 -27 -25z"/>
<path d="M2656 1453 c-16 -17 -5 -34 22 -31 32 4 37 30 6 34 -12 2 -24 1 -28
-3z"/>
<path d="M2757 1441 c-6 -25 -1 -30 24 -24 10 3 19 14 19 24 0 25 -36 25 -43
0z"/>
<path d="M2850 1441 c0 -11 5 -23 10 -26 6 -3 10 -2 10 4 0 5 3 16 6 25 4 11
1 16 -10 16 -9 0 -16 -8 -16 -19z"/>
<path d="M2897 1453 c-4 -3 -7 -14 -7 -22 0 -12 10 -16 40 -16 22 0 40 3 40 7
0 5 -7 8 -16 8 -10 0 -14 6 -10 15 4 11 -1 15 -18 15 -12 0 -26 -3 -29 -7z"/>
<path d="M3170 1445 c0 -10 9 -14 24 -13 19 2 22 5 14 15 -14 18 -38 16 -38
-2z"/>
<path d="M3253 1454 c-7 -3 -13 -14 -13 -25 0 -17 8 -19 64 -19 35 0 71 -3 80
-6 11 -4 16 -1 16 10 0 10 -9 16 -22 17 -22 0 -22 1 -3 9 20 8 20 9 -1 9 -12
1 -41 3 -65 6 -24 2 -50 2 -56 -1z"/>
<path d="M3692 1452 c-7 -2 -12 -11 -12 -20 -1 -15 -2 -15 -14 1 -16 21 -39
22 -55 3 -9 -11 -8 -15 5 -20 9 -3 22 -2 29 4 9 8 14 7 17 -1 3 -8 18 -10 50
-5 33 5 45 11 42 20 -6 15 -42 25 -62 18z"/>
<path d="M3887 1454 c-4 -4 -32 -6 -62 -5 -43 2 -55 -1 -55 -13 0 -8 13 -17
31 -21 49 -11 29 -30 -27 -25 -41 3 -150 3 -189 0 -5 0 -3 -5 5 -10 11 -7 4
-10 -27 -10 -24 0 -43 4 -43 9 0 5 -13 9 -30 9 -32 -1 -43 -18 -11 -18 11 0
21 -5 23 -12 5 -14 98 -12 113 3 17 16 23 10 12 -14 -9 -20 -17 -22 -90 -23
-46 0 -82 -5 -84 -10 -4 -12 118 -11 136 1 6 3 11 3 11 -2 0 -4 20 -8 45 -7
51 1 60 -11 14 -20 -17 -3 -28 -10 -24 -16 3 -6 -4 -10 -17 -10 -18 0 -20 2
-8 10 11 7 7 10 -18 10 -18 0 -44 -7 -57 -16 -16 -11 -34 -14 -55 -9 -19 4
-36 2 -46 -6 -12 -10 -16 -9 -21 9 -8 31 -20 27 -21 -6 0 -15 -2 -34 -4 -42
-2 -11 4 -14 21 -12 24 2 24 2 6 -18 -10 -11 -13 -20 -7 -20 7 0 12 -4 12 -10
0 -5 -9 -10 -19 -10 -23 0 -35 -28 -20 -46 12 -15 -12 -18 -90 -14 -41 2 -39
-23 2 -28 15 -2 27 -8 27 -13 0 -10 -12 -12 -46 -10 -11 1 -32 -3 -47 -8 -17
-7 -28 -7 -32 -1 -8 13 -25 13 -25 -1 0 -6 8 -21 19 -34 13 -18 21 -21 30 -12
8 8 14 8 22 0 7 -7 3 -12 -17 -17 -22 -6 -32 -2 -51 20 -12 15 -23 33 -23 41
0 7 -7 13 -15 13 -8 0 -15 -4 -15 -9 0 -5 -18 -11 -40 -13 -27 -2 -40 0 -40 9
0 7 6 10 13 7 8 -3 20 2 27 11 11 14 11 16 -1 13 -9 -2 -13 4 -11 15 4 24 -15
21 -21 -4 -3 -12 -10 -18 -17 -14 -6 4 -8 15 -5 26 6 17 -3 24 -27 20 -13 -2
-9 17 5 22 7 4 3 8 -11 13 -30 9 -25 40 6 36 20 -3 22 0 16 25 -9 37 -10 38
-40 25 -19 -9 -24 -17 -19 -32 4 -11 2 -20 -4 -20 -6 0 -11 6 -11 14 0 17 -39
48 -52 40 -4 -3 -8 0 -8 5 0 6 -9 11 -19 11 -11 0 -23 5 -26 10 -9 15 -35 12
-35 -4 0 -7 7 -19 16 -27 8 -7 13 -20 11 -30 -3 -12 0 -16 10 -12 11 4 14 1
11 -8 -3 -8 -17 -14 -34 -13 -17 0 -34 -7 -42 -18 -7 -10 -21 -17 -30 -17 -15
1 -15 2 1 6 19 5 23 28 7 38 -5 3 -10 1 -10 -6 0 -7 -3 -9 -7 -6 -3 4 -11 0
-17 -8 -6 -8 -31 -16 -55 -18 -35 -3 -40 -1 -27 8 22 16 10 24 -27 19 -68 -10
-75 35 -10 62 35 15 38 15 54 -5 11 -13 19 -17 21 -9 2 6 23 13 46 14 33 1 46
-3 58 -20 l16 -21 -6 25 c-3 14 -6 30 -6 36 0 15 -38 25 -46 13 -6 -11 -52
-11 -79 1 -18 7 -16 9 13 15 17 4 32 11 32 16 0 17 -27 9 -54 -16 -28 -26 -51
-32 -61 -15 -3 6 -15 10 -26 10 -10 0 -19 -4 -19 -10 0 -5 5 -10 10 -10 6 0
10 -4 10 -10 0 -18 -32 -10 -37 10 -4 13 -18 22 -47 28 -31 6 -40 12 -38 25 2
12 -4 17 -21 17 -27 0 -59 -30 -55 -51 4 -19 -52 -25 -63 -7 -8 11 -10 11 -18
-1 -7 -10 -10 -11 -16 -1 -5 8 -1 18 10 26 16 12 21 11 38 -4 19 -16 19 -16
12 7 -6 20 -4 23 9 18 20 -8 20 -3 2 16 -11 11 -36 14 -101 12 -90 -3 -102 -6
-90 -24 4 -7 12 -8 24 -1 10 5 21 6 25 3 6 -6 -47 -33 -65 -33 -5 0 -9 9 -9
20 0 11 -4 20 -10 20 -5 0 -7 -6 -4 -14 3 -8 1 -17 -5 -21 -6 -3 -11 -1 -11 6
0 8 -4 8 -15 -1 -8 -7 -36 -12 -63 -12 -33 1 -43 -1 -32 -8 8 -5 34 -10 58
-10 46 0 47 -1 30 -33 -10 -20 -10 -21 6 -8 9 8 19 11 23 7 3 -3 1 -6 -5 -6
-7 0 -12 -6 -12 -14 0 -10 -9 -13 -27 -11 -32 3 -53 -3 -53 -17 0 -6 11 -8 25
-6 17 4 25 1 25 -8 0 -19 10 -17 26 4 9 11 13 13 14 4 0 -25 20 -1 21 26 1 17
3 21 6 10 2 -10 11 -18 19 -18 8 0 14 -10 14 -25 0 -14 -4 -25 -10 -25 -5 0
-10 5 -10 12 0 6 -3 8 -6 5 -4 -4 -1 -13 6 -22 10 -13 9 -15 -9 -15 -29 0
-101 23 -101 32 0 5 -10 8 -22 8 -22 -1 -21 -2 5 -16 15 -8 27 -19 27 -24 0
-4 15 -12 33 -16 l32 -7 -45 -12 -45 -12 45 -5 c25 -2 62 -1 84 4 38 8 56 5
43 -9 -4 -3 -35 -9 -69 -13 -35 -4 -58 -8 -52 -9 15 -1 5 -51 -12 -58 -22 -8
-37 7 -23 23 9 11 6 14 -17 14 -26 1 -27 2 -11 14 25 19 21 27 -9 16 -15 -6
-32 -7 -41 -1 -11 6 -23 3 -37 -11 -12 -10 -22 -14 -24 -8 -5 13 -42 13 -42
-1 0 -5 4 -8 9 -4 5 3 11 -5 13 -17 2 -17 9 -22 23 -20 11 2 22 8 23 13 2 5 9
6 15 2 6 -4 8 0 4 10 -8 21 -8 21 37 2 37 -16 46 -29 24 -38 -18 -8 11 -27 29
-20 7 3 25 -3 41 -13 15 -10 33 -17 41 -15 20 4 61 -8 61 -18 0 -4 -6 -8 -12
-9 -46 -4 -98 -16 -92 -21 3 -3 11 -6 17 -6 7 0 12 -7 12 -15 1 -8 6 -14 13
-12 7 1 12 -2 12 -8 0 -5 -5 -10 -11 -10 -5 0 -8 -4 -5 -8 3 -5 -1 -9 -9 -9
-9 0 -16 11 -16 26 -2 23 -2 23 -6 4 -4 -22 -29 -36 -53 -31 -7 2 -14 -2 -16
-7 -4 -9 32 -12 189 -16 33 0 57 -5 55 -11 -2 -5 -7 -10 -10 -10 -4 0 -33 -6
-64 -14 -38 -8 -63 -10 -75 -3 -10 5 -28 9 -41 9 -13 0 -29 5 -36 12 -9 9 -12
8 -12 -7 0 -17 8 -21 47 -23 26 -2 50 -5 55 -8 20 -12 -5 -20 -59 -19 -55 2
-79 -5 -113 -32 -13 -10 -15 -7 -17 19 -1 17 -4 32 -5 33 -2 2 -21 0 -43 -4
-38 -7 -39 -7 -17 -19 12 -7 27 -10 32 -7 6 3 10 3 10 -2 0 -14 -48 -31 -80
-29 -16 1 -30 -1 -30 -5 0 -12 33 -16 100 -13 87 5 120 -3 120 -27 0 -12 -9
-21 -25 -25 -14 -3 -25 -12 -25 -19 0 -17 54 -26 145 -24 42 1 78 -1 82 -5 3
-3 -3 -6 -15 -6 -23 0 -30 -16 -10 -22 7 -3 3 -13 -12 -28 -15 -15 -25 -19
-28 -12 -5 16 -23 16 -20 0 4 -18 -112 -24 -123 -7 -11 18 -2 29 24 28 21 0
21 -1 2 -9 -31 -13 0 -12 45 2 22 7 40 18 40 23 0 15 -127 18 -136 3 -5 -8
-10 -5 -15 8 -7 17 -8 17 -8 2 -1 -10 -5 -18 -11 -18 -5 0 -7 13 -3 30 6 33
-10 41 -26 13 -9 -16 -10 -16 -11 4 0 12 6 24 13 26 6 3 0 6 -15 6 -14 1 -28
-4 -30 -11 -3 -8 -11 -5 -24 8 -11 11 -18 26 -16 32 6 20 -17 13 -28 -8 -6
-11 -16 -19 -22 -17 -6 1 -13 -4 -15 -12 -4 -9 1 -11 18 -7 13 3 18 3 12 0
-22 -10 -14 -24 12 -24 29 0 33 -15 7 -29 -13 -7 -22 -7 -30 1 -8 8 -15 8 -25
-1 -12 -9 -21 -9 -42 1 -22 10 -28 9 -36 -3 -12 -20 -12 -22 17 -43 25 -18 28
-18 61 -2 22 10 40 13 51 7 19 -9 45 -4 37 9 -2 4 7 8 21 8 15 -1 21 -4 15 -8
-16 -9 10 -31 35 -29 46 5 74 -2 74 -16 0 -24 -29 -30 -60 -11 -36 21 -50 20
-66 -1 -12 -17 -13 -17 -26 0 -9 11 -20 16 -31 11 -27 -10 -20 -21 21 -32 36
-9 36 -9 -19 -9 -42 1 -56 4 -52 14 3 7 1 13 -5 13 -6 0 -12 -5 -14 -12 -5
-15 -138 -14 -167 2 -15 7 -21 7 -21 0 0 -6 -15 -10 -34 -8 -19 1 -42 -5 -52
-13 -16 -12 -17 -12 -11 4 4 11 2 17 -8 17 -8 0 -19 -8 -25 -17 -11 -17 -11
-17 -6 -1 3 11 0 18 -8 18 -8 0 -17 7 -20 15 -7 20 -86 18 -93 -2 -6 -16 -53
-18 -53 -2 0 6 9 13 20 16 11 3 20 8 20 12 0 13 -77 41 -94 35 -9 -3 -16 -2
-16 3 0 6 -20 9 -45 9 -27 -1 -45 -6 -45 -12 0 -7 -7 -15 -16 -18 -13 -5 -14
-9 -4 -20 9 -12 7 -13 -17 -7 -17 5 -27 14 -27 24 1 10 -2 17 -7 17 -5 0 -9
-7 -9 -17 0 -15 -1 -15 -18 0 -10 10 -28 17 -39 17 -12 0 -24 8 -27 17 -6 14
-9 15 -16 3 -6 -10 -1 -17 17 -27 14 -7 29 -11 33 -8 5 3 16 -3 26 -12 17 -17
17 -18 -3 -21 -12 -2 -27 -10 -33 -18 -16 -18 -30 -18 -30 1 0 21 -26 19 -48
-3 -10 -10 -27 -22 -38 -26 -31 -12 3 -25 56 -22 25 2 50 0 55 -5 6 -4 31 -9
55 -11 31 -2 46 -8 48 -19 3 -16 -2 -18 -58 -21 -22 -1 -29 -5 -25 -15 3 -8 5
-19 5 -24 0 -5 5 -9 10 -9 6 0 10 7 10 15 0 16 8 18 54 15 16 -1 33 4 38 12 7
10 10 10 19 -5 13 -23 32 -22 54 3 22 25 14 36 -15 20 -12 -6 -24 -9 -27 -6
-11 10 8 24 44 31 21 4 50 13 66 21 19 10 39 13 60 8 18 -4 41 -8 51 -9 27 -2
33 -25 7 -25 -12 0 -21 6 -22 13 0 6 -5 1 -10 -12 -8 -21 -14 -23 -57 -19 -26
3 -41 3 -34 1 6 -3 12 -9 12 -15 0 -6 8 -17 17 -24 10 -7 14 -16 10 -21 -5 -4
-14 0 -21 10 -13 17 -36 23 -36 9 0 -4 7 -17 15 -29 14 -20 13 -22 -20 -33
-19 -6 -35 -16 -35 -21 0 -12 27 -12 35 1 3 5 17 10 31 10 15 0 24 6 24 15 0
8 4 15 9 15 5 0 7 -9 4 -20 -4 -14 0 -20 11 -20 9 0 16 -4 16 -8 0 -17 -13
-21 -32 -11 -11 6 -27 7 -36 4 -13 -6 -9 -10 18 -21 19 -8 24 -12 10 -9 -88
20 -90 19 -90 -10 0 -26 2 -27 44 -24 24 2 42 1 39 -3 -2 -5 -15 -8 -28 -8
-23 0 -39 -12 -30 -22 11 -11 96 16 91 28 -3 7 2 15 10 18 12 5 15 -1 12 -21
-2 -21 -10 -29 -33 -34 -16 -3 -48 -14 -69 -23 -22 -9 -54 -19 -70 -21 -17 -2
-43 -7 -58 -10 -18 -3 -28 -1 -28 7 0 9 -3 9 -11 1 -23 -23 3 -33 79 -33 65 0
80 3 95 20 18 21 37 26 37 10 0 -5 -4 -10 -10 -10 -5 0 -10 -5 -10 -10 0 -14
283 -10 292 4 5 8 8 7 8 -1 0 -10 29 -13 110 -13 94 0 110 2 110 16 0 12 5 14
18 8 33 -14 88 -17 354 -21 228 -3 272 -1 298 12 23 12 30 12 30 3 1 -9 5 -8
13 3 8 11 22 15 44 12 24 -4 34 0 41 14 8 14 23 20 55 22 45 2 64 -9 51 -30
-4 -8 -9 -7 -15 2 -7 12 -15 11 -44 -5 -19 -11 -35 -23 -35 -28 0 -4 875 -8
1945 -8 l1945 0 0 518 c0 481 -4 561 -27 539 -4 -5 -1 -12 7 -17 22 -14 5 -23
-19 -10 -12 6 -26 8 -31 5 -6 -3 -10 1 -10 9 0 10 -6 13 -15 10 -8 -4 -15 -1
-15 5 0 15 23 14 39 -2 11 -10 12 -8 8 8 -4 11 -9 32 -13 48 -3 15 -9 27 -13
27 -6 0 -44 -52 -68 -94 -13 -21 -13 -21 -13 2 0 19 -4 22 -20 17 -12 -4 -20
-2 -20 5 0 6 -8 10 -17 9 -10 -1 -26 1 -35 5 -11 5 -24 0 -37 -13 -31 -31 -26
-43 14 -35 23 4 35 2 35 -5 0 -7 10 -5 26 5 22 15 27 15 35 3 5 -9 4 -18 -4
-24 -7 -5 -16 -18 -20 -29 -7 -17 -9 -18 -25 -2 -21 19 -64 21 -90 5 -26 -17
-96 1 -100 25 -2 10 2 23 8 30 9 8 11 6 6 -10 -5 -15 -2 -24 9 -28 10 -4 14
-2 9 5 -8 14 14 29 44 29 12 0 22 5 22 10 0 6 -16 10 -36 10 -21 0 -33 4 -29
10 14 23 -7 27 -30 4 -13 -13 -29 -24 -35 -24 -5 0 -10 -10 -11 -22 0 -13 -3
-17 -6 -10 -6 15 -59 16 -68 2 -4 -7 -11 -8 -18 -2 -7 6 -21 12 -32 14 -19 4
-19 5 4 17 19 11 25 11 33 0 7 -11 11 -11 15 -1 2 6 19 12 36 12 29 0 30 1 11
14 -13 10 -23 11 -31 4 -7 -6 -23 -8 -35 -5 -12 4 -28 1 -35 -5 -9 -7 -17 -7
-27 1 -10 9 -15 8 -20 -4 -7 -20 -26 -19 -41 2 -12 15 -15 15 -49 -1 -20 -9
-36 -24 -36 -33 0 -21 -11 -11 -14 13 -3 20 -48 23 -140 10 -38 -6 -52 -4 -67
10 -18 16 -18 18 -1 30 16 12 15 13 -5 14 -12 0 -27 -9 -33 -20 -6 -11 -17
-20 -24 -20 -8 0 -27 -7 -42 -15 -26 -13 -29 -13 -32 1 -2 9 -10 13 -19 10 -8
-3 -19 -6 -24 -6 -5 0 -9 -5 -9 -11 0 -6 8 -8 19 -4 11 3 22 1 26 -5 3 -5 15
-10 26 -10 26 0 24 -18 -2 -22 -31 -4 -49 -35 -29 -49 12 -8 10 -9 -8 -4 -14
4 -38 0 -59 -10 -21 -10 -47 -15 -64 -11 -15 3 -58 3 -94 -1 -50 -4 -65 -9
-61 -19 7 -19 -4 -18 -25 2 -28 25 -108 22 -154 -5 -21 -12 -55 -23 -76 -24
-21 -1 -35 -5 -33 -9 3 -4 -5 -8 -17 -8 -19 0 -20 -2 -8 -17 13 -15 11 -16
-11 -10 -25 6 -90 -11 -90 -24 0 -4 82 -7 182 -8 166 -1 214 -6 181 -18 -7 -3
-13 -14 -13 -25 0 -19 0 -19 29 1 28 21 29 21 34 1 4 -16 11 -19 36 -14 20 4
39 1 55 -10 23 -15 26 -15 35 1 9 16 11 17 28 1 13 -12 23 -14 33 -8 18 12 60
13 60 3 0 -9 -57 -43 -71 -43 -6 0 -7 5 -4 10 3 6 -1 10 -9 10 -9 0 -16 -5
-16 -11 0 -8 -5 -8 -15 1 -16 13 -45 7 -45 -9 0 -5 10 -7 22 -3 11 3 19 1 16
-4 -4 -5 17 -10 45 -12 29 -2 54 -7 55 -13 6 -16 20 -10 27 11 3 11 10 20 15
20 5 0 7 -7 4 -15 -5 -12 2 -15 29 -15 20 0 39 -5 42 -10 4 -6 10 -8 15 -5 13
8 101 -16 94 -26 -8 -14 6 -10 22 5 16 17 19 36 4 36 -5 0 -10 -5 -10 -12 0
-9 -3 -9 -12 0 -10 10 -10 15 2 22 8 6 22 9 31 7 9 -1 23 4 32 12 13 10 17 10
17 1 0 -7 8 -10 20 -7 11 3 20 2 20 -3 0 -4 -13 -10 -30 -13 -21 -5 -30 -12
-30 -27 0 -11 -7 -20 -16 -20 -8 0 -12 -4 -9 -10 3 -5 17 -10 31 -10 13 0 24
-4 24 -9 0 -14 -153 -8 -158 7 -2 6 1 12 8 12 6 0 8 5 4 11 -5 8 -10 6 -16 -5
-11 -19 -39 -21 -56 -4 -15 15 -62 17 -62 1 0 -20 -19 -25 -70 -18 -37 5 -49
11 -53 27 -4 15 -11 18 -26 13 -11 -3 -30 -1 -43 6 -16 9 -23 9 -26 0 -2 -6
-19 -11 -38 -11 -24 0 -34 -5 -34 -15 0 -8 -4 -15 -9 -15 -5 0 -7 8 -4 19 4
15 -3 19 -43 25 -26 3 -52 2 -59 -4 -7 -6 -15 -6 -23 2 -9 9 -18 8 -39 -2 -22
-11 -25 -14 -10 -17 34 -8 16 -18 -33 -19 -28 0 -50 3 -50 7 0 8 31 23 43 20
5 -1 18 10 29 24 11 14 26 25 34 25 8 0 14 5 14 11 0 8 17 9 53 5 28 -3 75 -2
102 3 31 5 39 9 23 10 -16 0 -28 6 -28 12 0 5 5 7 10 4 6 -3 10 -2 10 4 0 21
-22 22 -27 1 -4 -16 -11 -20 -26 -16 -12 3 -26 1 -33 -5 -8 -7 -14 -7 -19 1
-8 13 -52 13 -60 0 -4 -6 -11 -7 -17 -4 -6 4 -15 0 -20 -7 -7 -10 -7 -7 -3 9
4 12 2 22 -4 22 -5 0 -11 -10 -13 -22 -4 -27 -28 -36 -28 -11 -1 14 -4 11 -16
-9 -18 -34 -27 -35 -44 -3 -7 14 -18 25 -23 25 -6 0 -7 -3 -4 -7 4 -3 2 -12
-3 -18 -8 -9 -22 -10 -52 -3 -23 5 -47 7 -55 4 -7 -3 -13 1 -13 9 0 8 -4 15
-10 15 -5 0 -10 -10 -10 -22 -1 -21 -2 -21 -11 -5 -6 9 -14 15 -19 12 -5 -3
-11 -2 -14 3 -3 5 16 19 42 32 35 17 42 25 28 28 -10 2 -23 -1 -28 -6 -7 -7
-15 -6 -25 4 -17 17 -37 8 -29 -12 3 -9 -1 -14 -13 -14 -11 0 -21 5 -23 12 -5
13 -106 19 -114 6 -3 -5 0 -15 6 -23 19 -22 3 -18 -21 6 -14 14 -24 17 -32 10
-13 -10 -63 -8 -74 3 -3 3 6 6 20 6 19 0 27 5 27 18 0 30 -20 43 -44 28 -13
-8 -31 -10 -46 -6 -27 8 -16 16 30 23 14 1 -3 7 -37 11 -35 4 -63 11 -63 15 0
14 42 31 65 25 29 -7 33 3 8 22 -16 12 -13 13 27 14 26 0 56 7 69 17 23 16 24
16 19 -5 -7 -26 -1 -28 24 -5 13 11 18 12 18 3 0 -28 73 -56 82 -31 2 6 18 13
37 16 27 5 32 3 27 -10 -4 -12 0 -14 22 -8 15 3 42 15 60 25 19 10 39 18 45
17 7 -1 19 -1 27 0 28 2 -5 20 -40 22 -19 1 -45 6 -58 12 -17 8 -25 8 -31 -1
-4 -6 -16 -13 -26 -15 -11 -1 -25 -6 -31 -9 -6 -4 -22 -1 -37 7 -19 10 -27 10
-31 2 -3 -9 -7 -9 -13 0 -5 7 -22 11 -38 9 -44 -3 -80 8 -80 27 0 9 -9 23 -20
31 -18 13 -6 14 107 12 70 -1 130 -5 134 -9 11 -11 -8 -28 -26 -22 -24 8 -33
-8 -12 -22 12 -7 25 -7 42 0 33 13 53 14 62 3 4 -6 17 -5 33 2 15 7 43 15 63
18 42 6 72 35 72 70 0 25 -7 29 -28 15 -11 -7 -11 -11 2 -23 14 -14 13 -16 -5
-21 -11 -3 -22 0 -25 6 -5 14 -122 10 -140 -4 -6 -5 -15 -5 -20 0 -5 5 -38 11
-74 13 -36 3 -59 3 -52 0 6 -2 12 -7 12 -11 0 -4 -21 -4 -47 0 -27 4 -71 8
-100 8 -28 1 -55 6 -58 11 -4 6 -11 8 -16 5 -5 -4 -9 -1 -9 5 0 6 -4 9 -8 6
-4 -2 -14 -1 -22 5 -11 6 -7 9 15 9 17 0 39 7 49 15 10 8 22 12 27 10 4 -3 11
0 15 6 5 8 1 10 -14 7 -22 -6 -72 36 -59 49 4 3 2 12 -3 18 -8 10 -2 16 22 25
32 11 33 12 10 21 -13 5 -35 6 -48 3 -13 -3 -32 -3 -41 1 -32 14 -43 14 -43
-1 0 -8 -7 -14 -15 -14 -10 0 -14 7 -11 23 3 12 5 28 5 35 1 9 11 11 35 7 20
-4 36 -2 40 4 10 16 36 14 36 -3 0 -8 7 -17 16 -20 28 -11 27 -6 -5 25 -23 22
-37 28 -49 23 -9 -5 -34 -8 -54 -7 -21 1 -38 -3 -38 -7 0 -15 -40 -18 -54 -4
-8 8 -23 14 -34 14 -11 0 -23 7 -26 16 -8 21 -3 26 28 28 14 0 26 7 26 14 0 7
-6 12 -12 11 -24 -3 -38 1 -38 11 0 6 25 10 55 10 51 0 55 1 51 23 -3 22 -43
36 -59 21z m-154 -81 c-7 -2 -19 -2 -25 0 -7 3 -2 5 12 5 14 0 19 -2 13 -5z
m83 -14 c3 -6 -1 -18 -10 -27 -16 -16 -18 -16 -27 1 -15 25 -32 21 -25 -7 4
-15 0 -28 -9 -36 -21 -17 -41 1 -40 37 1 24 7 29 36 34 54 10 67 10 75 -2z
m-1526 -69 c0 -5 -9 -10 -20 -10 -11 0 -20 5 -20 10 0 6 9 10 20 10 11 0 20
-4 20 -10z m1578 -2 c-5 -13 -67 -30 -81 -21 -4 3 0 11 10 19 23 17 76 19 71
2z m-1448 -2 c0 -3 -4 -8 -10 -11 -5 -3 -10 -1 -10 4 0 6 5 11 10 11 6 0 10
-2 10 -4z m1350 -24 c0 -10 5 -23 12 -30 7 -7 8 -12 3 -13 -6 0 -21 -2 -35 -3
-29 -4 -40 8 -33 35 6 20 23 27 23 9 0 -5 5 -10 11 -10 6 0 9 7 5 15 -3 8 -1
15 4 15 6 0 10 -8 10 -18z m150 8 c0 -5 -12 -10 -26 -10 -14 0 -23 4 -19 10 3
6 15 10 26 10 10 0 19 -4 19 -10z m-1710 -15 c0 -8 -4 -15 -10 -15 -5 0 -10 7
-10 15 0 8 5 15 10 15 6 0 10 -7 10 -15z m213 -15 c11 0 18 -3 14 -6 -11 -11
-58 6 -51 18 6 9 9 9 12 0 2 -7 13 -12 25 -12z m-313 -5 c0 -8 -4 -15 -10 -15
-5 0 -10 7 -10 15 0 8 5 15 10 15 6 0 10 -7 10 -15z m1947 -36 c2 -17 -1 -18
-13 -9 -17 15 -19 41 -1 34 7 -2 13 -14 14 -25z m-1777 9 c0 -6 7 -7 16 -4 13
5 14 4 6 -7 -7 -8 -9 -17 -5 -20 3 -4 -1 -7 -10 -7 -9 0 -17 3 -17 8 0 4 -19
6 -42 4 -42 -3 -43 -3 -22 15 22 20 74 27 74 11z m124 -19 c8 -8 6 -10 -9 -5
-11 3 -34 2 -52 -3 -28 -8 -30 -7 -25 11 4 17 11 19 40 14 19 -3 40 -10 46
-17z m76 11 c0 -5 -9 -10 -20 -10 -11 0 -20 5 -20 10 0 6 9 10 20 10 11 0 20
-4 20 -10z m1525 0 c-3 -6 1 -13 9 -16 30 -11 16 -25 -18 -19 -20 4 -36 2 -40
-4 -12 -18 -26 -12 -26 10 0 18 5 20 26 16 16 -3 28 0 31 9 3 8 9 14 15 14 5
0 6 -5 3 -10z m-225 -30 c0 -6 14 -10 30 -10 17 0 30 -5 30 -11 0 -6 -15 -10
-32 -9 -50 3 -55 1 -34 -15 11 -9 14 -15 7 -15 -8 0 -10 -7 -6 -19 7 -24 -12
-38 -28 -21 -9 10 -9 14 1 17 6 3 12 9 12 14 0 5 -11 2 -25 -7 -23 -15 -27
-15 -52 1 -24 16 -27 16 -38 1 -7 -9 -24 -16 -38 -16 -20 0 -25 5 -24 20 1 23
17 28 17 5 0 -8 5 -15 11 -15 6 0 8 8 4 19 -5 17 -2 18 42 9 26 -5 58 -6 71
-3 25 6 30 30 7 39 -13 4 -14 10 -5 26 9 16 15 18 30 10 11 -6 20 -15 20 -20z
m-246 5 c-6 -16 16 -21 30 -7 4 4 23 7 41 7 25 0 31 -3 23 -12 -6 -8 -20 -10
-34 -7 -15 4 -24 2 -24 -5 0 -6 -13 -11 -29 -11 -17 0 -33 -5 -37 -11 -4 -8
-9 -7 -15 2 -10 17 -1 32 17 25 8 -3 14 -1 14 4 0 6 -6 10 -14 10 -8 0 -18 5
-21 10 -4 6 6 10 24 10 23 0 29 -4 25 -15z m-634 -5 c12 -8 9 -10 -13 -10 -16
0 -26 4 -22 10 8 12 16 12 35 0z m1020 0 c0 -5 -2 -10 -4 -10 -3 0 -8 5 -11
10 -3 6 -1 10 4 10 6 0 11 -4 11 -10z m-1530 -20 c-14 -4 -32 -4 -40 -1 -10 3
-4 8 15 11 37 8 59 -2 25 -10z m80 10 c0 -5 -11 -10 -25 -10 -14 0 -25 5 -25
10 0 6 11 10 25 10 14 0 25 -4 25 -10z m1590 -4 c0 -14 -21 -26 -46 -26 -21 0
-17 14 9 26 31 16 37 16 37 0z m-1810 -16 c-27 -7 -43 -3 -35 9 2 5 17 6 32 3
l28 -6 -25 -6z m-50 1 c0 -5 -9 -11 -20 -14 -13 -3 -20 0 -20 9 0 8 9 14 20
14 11 0 20 -4 20 -9z m297 -13 c-3 -8 -6 -5 -6 6 -1 11 2 17 5 13 3 -3 4 -12
1 -19z m463 2 c0 -5 -9 -10 -21 -10 -11 0 -17 5 -14 10 3 6 13 10 21 10 8 0
14 -4 14 -10z m974 1 c3 -5 -1 -14 -8 -20 -12 -10 -14 -9 -11 6 2 10 4 19 4
21 2 5 10 2 15 -7z m-1140 -26 c3 -8 1 -15 -4 -15 -6 0 -10 7 -10 15 0 8 2 15
4 15 2 0 6 -7 10 -15z m-586 -2 c-10 -2 -28 -2 -40 0 -13 2 -5 4 17 4 22 1 32
-1 23 -4z m423 -3 c10 0 19 -4 19 -10 0 -14 -63 -5 -68 10 -3 9 1 11 12 7 10
-4 26 -7 37 -7z m219 0 c0 -5 -9 -10 -20 -10 -11 0 -20 5 -20 10 0 6 9 10 20
10 11 0 20 -4 20 -10z m-314 -7 c-11 -11 -48 -14 -41 -3 3 5 16 10 27 10 12 0
18 -3 14 -7z m1479 -3 c-3 -5 -1 -10 6 -10 10 0 10 -3 2 -11 -6 -6 -16 -8 -22
-5 -17 11 -13 36 5 36 8 0 12 -4 9 -10z m-520 -10 c-3 -5 -10 -10 -16 -10 -5
0 -9 5 -9 10 0 6 7 10 16 10 8 0 12 -4 9 -10z m-933 -22 c-7 -7 -12 -8 -12 -2
0 14 12 26 19 19 2 -3 -1 -11 -7 -17z m-172 8 c0 -11 -19 -15 -25 -6 -3 5 1
10 9 10 9 0 16 -2 16 -4z m580 -17 c0 -7 -36 -19 -60 -19 -8 0 -4 6 10 13 28
15 50 17 50 6z m2410 2 c0 -5 -12 -11 -27 -14 -26 -5 -26 -4 -8 9 22 16 35 18
35 5z m330 -11 c0 -5 -5 -10 -11 -10 -5 0 -7 5 -4 10 3 6 8 10 11 10 2 0 4 -4
4 -10z m-2237 -7 c-7 -2 -21 -2 -30 0 -10 3 -4 5 12 5 17 0 24 -2 18 -5z
m2107 -9 c0 -2 -9 -4 -21 -4 -11 0 -18 4 -14 10 5 8 35 3 35 -6z m-1080 -17
c11 -5 9 -6 -4 -4 -11 1 -21 9 -23 17 -3 10 -2 11 4 4 4 -6 15 -14 23 -17z
m1010 14 c0 -12 -29 -19 -52 -13 -31 7 -19 22 17 22 19 0 35 -4 35 -9z m257
-24 c2 -17 1 -19 -7 -7 -11 17 -14 47 -3 36 4 -3 8 -17 10 -29z m-375 6 c10
-9 18 -20 18 -25 0 -14 -30 -9 -36 7 -5 12 -10 12 -27 4 l-22 -12 20 21 c25
26 24 26 47 5z m-3241 -6 c-1 -12 -15 -9 -19 4 -3 6 1 10 8 8 6 -3 11 -8 11
-12z m359 3 c0 -5 -4 -10 -10 -10 -5 0 -10 5 -10 10 0 6 5 10 10 10 6 0 10 -4
10 -10z m50 0 c0 -5 -9 -10 -20 -10 -11 0 -20 5 -20 10 0 6 9 10 20 10 11 0
20 -4 20 -10z m3700 -10 c0 -5 -4 -10 -10 -10 -5 0 -10 5 -10 10 0 6 5 10 10
10 6 0 10 -4 10 -10z m-3265 -20 c3 -5 1 -10 -4 -10 -6 0 -11 5 -11 10 0 6 2
10 4 10 3 0 8 -4 11 -10z m35 0 c0 -5 -4 -10 -10 -10 -5 0 -10 5 -10 10 0 6 5
10 10 10 6 0 10 -4 10 -10z m2473 -4 c9 -7 17 -24 16 -37 l-1 -24 -7 25 c-4
14 -15 27 -25 28 -14 3 -17 0 -13 -12 4 -9 2 -16 -2 -16 -15 0 -19 23 -7 37
14 15 17 15 39 -1z m-3363 -6 c-19 -13 -30 -13 -30 0 0 6 10 10 23 10 18 0 19
-2 7 -10z m391 0 c5 0 9 -9 9 -19 0 -23 17 -36 45 -36 30 0 29 -20 -1 -23 -15
-2 -28 -11 -31 -22 -7 -26 -40 -32 -46 -9 -3 13 -15 20 -34 20 l-28 2 27 4
c37 6 57 31 37 47 -20 14 -21 49 -2 41 8 -3 19 -5 24 -5z m537 -15 c-22 -25
-68 -35 -68 -14 0 6 8 8 19 4 14 -4 23 0 31 15 6 11 17 20 25 20 11 0 9 -6 -7
-25z m272 15 c0 -5 -4 -10 -9 -10 -6 0 -13 5 -16 10 -3 6 1 10 9 10 9 0 16 -4
16 -10z m1986 -1 c3 -6 14 -9 24 -6 12 3 17 0 13 -8 -3 -9 -16 -12 -41 -8 -45
7 -51 11 -32 23 20 13 27 12 36 -1z m310 2 c-9 -14 39 -22 84 -15 29 5 40 3
40 -6 0 -7 8 -19 18 -26 16 -13 16 -13 0 -14 -10 0 -18 4 -18 9 0 15 -38 19
-56 6 -13 -9 -26 -10 -46 -3 -29 10 -53 40 -41 52 10 9 25 7 19 -3z m204 -1
c0 -5 -5 -10 -11 -10 -5 0 -7 5 -4 10 3 6 8 10 11 10 2 0 4 -4 4 -10z m-3200
-20 c0 -11 -45 -21 -64 -14 -26 10 -18 23 17 26 35 4 47 1 47 -12z m40 10 c0
-5 -7 -10 -16 -10 -8 0 -12 5 -9 10 3 6 10 10 16 10 5 0 9 -4 9 -10z m1140 0
c0 -5 -2 -10 -4 -10 -3 0 -8 5 -11 10 -3 6 -1 10 4 10 6 0 11 -4 11 -10z
m1600 0 c0 -5 -4 -10 -10 -10 -5 0 -10 5 -10 10 0 6 5 10 10 10 6 0 10 -4 10
-10z m180 -8 c0 -10 -7 -19 -15 -19 -15 0 -20 18 -8 30 12 13 23 7 23 -11z
m-3120 -8 c0 -11 -6 -14 -20 -9 -13 4 -22 1 -26 -9 -5 -12 -10 -13 -25 -5 -37
19 -18 35 44 38 18 1 27 -4 27 -15z m410 -6 c10 -6 0 -8 -30 -6 -34 2 -45 0
-45 -12 0 -8 -10 -16 -23 -18 -39 -6 -13 -22 36 -22 26 0 54 -5 62 -10 10 -7
-9 -10 -62 -10 -43 0 -78 -4 -78 -9 0 -5 9 -7 20 -4 11 3 20 0 20 -6 0 -6 -9
-11 -19 -11 -10 0 -22 -8 -26 -17 -6 -16 -8 -16 -15 3 -7 17 -14 20 -36 16
-20 -4 -25 -1 -22 9 3 8 13 16 24 18 10 2 28 10 39 17 17 13 13 14 -41 10 -53
-4 -60 -3 -61 14 -1 16 4 18 53 13 45 -5 53 -3 49 9 -12 31 109 44 155 16z
m1298 3 c3 -8 -4 -10 -25 -5 -44 10 -54 26 -14 22 19 -2 37 -10 39 -17z
m-1015 -19 c-3 -20 2 -22 40 -22 24 0 48 5 54 11 8 8 11 1 10 -25 -1 -29 -6
-38 -31 -50 -18 -9 -32 -11 -34 -6 -2 6 -31 10 -64 10 -77 0 -67 13 12 16 32
1 63 5 69 9 6 3 16 3 21 0 6 -3 10 -2 10 4 0 14 -18 23 -25 12 -3 -5 -15 -7
-28 -4 -12 2 -35 4 -52 4 -28 -2 -29 -1 -10 13 14 11 17 18 9 26 -18 18 -45 1
-39 -24 6 -20 5 -20 -9 -2 -8 10 -19 15 -25 11 -15 -9 -14 18 1 33 7 7 30 11
53 9 35 -2 40 -6 38 -25z m3157 18 c0 -5 -5 -10 -11 -10 -5 0 -7 5 -4 10 3 6
8 10 11 10 2 0 4 -4 4 -10z m-4010 -4 c0 -11 -19 -15 -25 -6 -3 5 1 10 9 10 9
0 16 -2 16 -4z m885 -6 c3 -5 1 -10 -4 -10 -6 0 -11 5 -11 10 0 6 2 10 4 10 3
0 8 -4 11 -10z m875 -20 c0 -22 -15 -27 -23 -7 -4 9 -8 8 -16 -3 -8 -11 -13
-12 -19 -3 -5 7 -17 10 -32 6 -22 -6 -23 -7 -4 -14 18 -7 18 -8 -3 -8 -12 -1
-24 3 -28 9 -9 14 46 39 88 40 30 0 37 -3 37 -20z m-1145 0 c3 -5 -3 -10 -14
-10 -12 0 -21 5 -21 10 0 6 6 10 14 10 8 0 18 -4 21 -10z m368 -10 c3 -11 1
-20 -4 -20 -5 0 -9 9 -9 20 0 11 2 20 4 20 2 0 6 -9 9 -20z m2057 10 c0 -13
-50 -13 -70 0 -11 7 -4 10 28 10 23 0 42 -4 42 -10z m-1803 -15 c0 -8 -4 -15
-8 -15 -4 0 -9 7 -13 15 -3 9 0 15 8 15 7 0 13 -7 13 -15z m1273 -5 c-19 -13
-30 -13 -30 0 0 6 10 10 23 10 18 0 19 -2 7 -10z m137 -10 c3 -10 2 -11 -4 -4
-9 13 -61 13 -81 0 -7 -4 -16 -5 -19 -2 -4 3 0 6 8 7 8 0 6 4 -6 9 -14 7 -2 9
39 7 43 -1 61 -6 63 -17z m91 5 c3 -3 -11 -5 -32 -5 -22 0 -35 4 -31 10 6 10
52 6 63 -5z m155 9 c-7 -3 -9 -13 -6 -22 6 -15 5 -15 -11 -2 -16 12 -19 12
-27 -3 -6 -9 -21 -17 -34 -17 -43 0 -37 19 12 34 45 14 94 21 66 10z m44 0
c-3 -3 -12 -4 -19 -1 -8 3 -5 6 6 6 11 1 17 -2 13 -5z m573 2 c0 -2 -7 -7 -16
-10 -8 -3 -12 -2 -9 4 6 10 25 14 25 6z m-2405 -16 c-3 -5 -11 -10 -16 -10 -6
0 -7 5 -4 10 3 6 11 10 16 10 6 0 7 -4 4 -10z m-1111 -6 c27 -10 18 -21 -14
-16 -16 2 -30 8 -30 13 0 10 21 12 44 3z m776 -4 c0 -5 -4 -10 -10 -10 -5 0
-10 5 -10 10 0 6 5 10 10 10 6 0 10 -4 10 -10z m2910 0 c0 -5 -4 -10 -10 -10
-5 0 -10 5 -10 10 0 6 5 10 10 10 6 0 10 -4 10 -10z m-3830 -12 c0 -4 -17 -8
-37 -7 -26 0 -32 3 -20 8 24 9 57 9 57 -1z m815 2 c-3 -5 -13 -10 -21 -10 -8
0 -12 5 -9 10 3 6 13 10 21 10 8 0 12 -4 9 -10z m325 0 c0 -5 -4 -10 -10 -10
-5 0 -10 5 -10 10 0 6 5 10 10 10 6 0 10 -4 10 -10z m1460 0 c11 -7 6 -10 -20
-10 -26 0 -31 3 -20 10 8 5 17 10 20 10 3 0 12 -5 20 -10z m-2540 -10 c0 -5
-4 -10 -9 -10 -6 0 -13 5 -16 10 -3 6 1 10 9 10 9 0 16 -4 16 -10z m235 0 c3
-5 -3 -10 -15 -10 -12 0 -18 5 -15 10 3 6 10 10 15 10 5 0 12 -4 15 -10z
m2355 6 c0 -3 -4 -8 -10 -11 -5 -3 -10 -1 -10 4 0 6 5 11 10 11 6 0 10 -2 10
-4z m175 -6 c4 -6 -7 -10 -25 -10 -18 0 -29 4 -25 10 3 6 15 10 25 10 10 0 22
-4 25 -10z m83 -2 c-2 -9 9 -12 35 -11 28 2 37 -1 37 -13 0 -10 -6 -14 -15
-10 -8 3 -15 1 -15 -4 0 -11 -33 -14 -44 -3 -12 12 -46 10 -46 -4 0 -8 -9 -12
-22 -9 -32 4 -28 17 9 30 18 6 38 17 45 24 6 6 13 12 15 12 2 0 2 -6 1 -12z
m178 -22 c0 -14 -6 -22 -13 -19 -16 6 -16 16 -1 31 16 16 16 16 14 -12z m81
18 c-3 -3 -12 -4 -19 -1 -8 3 -5 6 6 6 11 1 17 -2 13 -5z m-2027 -14 c0 -5 -7
-10 -16 -10 -8 0 -12 5 -9 10 3 6 10 10 16 10 5 0 9 -4 9 -10z m2780 0 c0 -5
-4 -10 -9 -10 -6 0 -13 5 -16 10 -3 6 1 10 9 10 9 0 16 -4 16 -10z m-3435 -10
c3 -5 -1 -10 -10 -10 -9 0 -13 5 -10 10 3 6 8 10 10 10 2 0 7 -4 10 -10z m395
-2 c72 -12 90 -24 45 -30 -14 -2 -24 -7 -23 -13 2 -6 44 -11 98 -11 122 -2
120 -2 120 -15 0 -5 -5 -7 -11 -3 -6 3 -15 1 -19 -6 -6 -9 -12 -9 -30 0 -16 9
-25 9 -33 1 -8 -8 -6 -11 7 -11 9 0 14 -5 11 -10 -5 -8 -11 -7 -21 1 -8 7 -29
9 -48 6 -32 -5 -84 7 -116 28 -8 5 -23 8 -33 7 -9 -2 -20 4 -23 12 -5 14 -8
14 -30 0 -13 -9 -31 -14 -39 -10 -20 7 -45 -3 -45 -20 0 -18 -80 -40 -90 -24
-4 6 -10 11 -14 10 -3 0 -14 4 -24 10 -14 8 -12 9 13 8 17 -1 36 1 42 5 6 4
18 1 26 -8 13 -13 16 -13 21 1 13 33 6 54 -16 55 -15 1 -9 4 14 10 23 5 48 5
63 -1 15 -6 34 -10 43 -10 15 1 15 3 -2 15 -19 14 -18 15 12 15 17 0 63 -5
102 -12z m470 2 c0 -5 -4 -10 -9 -10 -6 0 -13 5 -16 10 -3 6 1 10 9 10 9 0 16
-4 16 -10z m-1315 -10 c-3 -5 -13 -10 -21 -10 -8 0 -12 5 -9 10 3 6 13 10 21
10 8 0 12 -4 9 -10z m952 4 c-3 -3 -12 -4 -19 -1 -8 3 -5 6 6 6 11 1 17 -2 13
-5z m250 0 c-3 -3 -12 -4 -19 -1 -8 3 -5 6 6 6 11 1 17 -2 13 -5z m-710 -10
c-3 -3 -12 -4 -19 -1 -8 3 -5 6 6 6 11 1 17 -2 13 -5z m83 -19 c-7 -8 -24 -15
-39 -15 -25 0 -24 1 9 18 40 20 49 19 30 -3z m490 15 c0 -5 -4 -10 -10 -10 -5
0 -10 5 -10 10 0 6 5 10 10 10 6 0 10 -4 10 -10z m1950 -4 c0 -3 -4 -8 -10
-11 -5 -3 -10 -1 -10 4 0 6 5 11 10 11 6 0 10 -2 10 -4z m-1775 -26 c-3 -5
-16 -10 -28 -10 -18 0 -19 2 -7 10 20 13 43 13 35 0z m-742 -7 c-7 -2 -19 -2
-25 0 -7 3 -2 5 12 5 14 0 19 -2 13 -5z m2997 3 c0 -11 -19 -15 -25 -6 -3 5 1
10 9 10 9 0 16 -2 16 -4z m69 -13 c-4 -23 5 -28 40 -28 48 0 59 -9 38 -30 -9
-8 -18 -11 -21 -6 -3 5 -45 10 -92 10 -88 1 -109 5 -99 22 4 5 1 9 -5 9 -6 0
-8 5 -5 10 3 6 13 10 21 10 9 0 12 -5 8 -11 -4 -8 6 -9 37 -5 32 4 39 3 24 -4
-17 -8 -16 -9 10 -7 17 1 31 8 31 15 2 18 4 22 9 22 3 0 4 -3 4 -7z m-3162
-29 c-3 -3 -12 -4 -19 -1 -8 3 -5 6 6 6 11 1 17 -2 13 -5z m73 -4 c0 -5 -4
-10 -10 -10 -5 0 -10 5 -10 10 0 6 5 10 10 10 6 0 10 -4 10 -10z m3255 -18
c-2 -3 -12 -1 -22 2 -15 6 -15 9 -3 16 13 8 35 -8 25 -18z m-3785 8 c12 -8 11
-10 -7 -10 -13 0 -23 5 -23 10 0 13 11 13 30 0z m250 1 c0 -10 -26 -9 -36 2
-4 4 2 7 14 7 12 0 22 -4 22 -9z m320 -1 c0 -5 -5 -10 -11 -10 -5 0 -7 5 -4
10 3 6 8 10 11 10 2 0 4 -4 4 -10z m620 -6 c14 -8 17 -13 7 -10 -10 3 -25 6
-33 6 -8 0 -14 5 -14 10 0 14 10 12 40 -6z m-590 -4 c0 -5 -5 -10 -11 -10 -5
0 -7 5 -4 10 3 6 8 10 11 10 2 0 4 -4 4 -10z m1653 -10 c-5 -19 -23 -29 -23
-12 0 7 20 32 26 32 1 0 0 -9 -3 -20z m987 4 c0 -2 -7 -4 -15 -4 -8 0 -15 4
-15 10 0 5 7 7 15 4 8 -4 15 -8 15 -10z m-2130 -6 c0 -4 -9 -8 -20 -8 -12 0
-20 -7 -20 -16 0 -12 -7 -14 -30 -9 -39 9 -71 -2 -63 -21 4 -10 0 -12 -11 -8
-9 3 -14 10 -11 14 3 5 -1 11 -7 13 -8 3 -6 6 5 6 9 1 17 6 17 12 0 5 4 7 10
4 5 -3 22 1 37 9 29 15 93 18 93 4z m380 8 c0 -2 -9 -6 -20 -9 -11 -3 -20 -1
-20 4 0 5 9 9 20 9 11 0 20 -2 20 -4z m2275 -6 c4 -6 -7 -10 -25 -10 -18 0
-29 4 -25 10 3 6 15 10 25 10 10 0 22 -4 25 -10z m-3331 -20 c-7 -7 -19 -7
-35 -1 -23 9 -22 10 11 10 23 1 31 -2 24 -9z m100 2 c2 -4 -17 -8 -42 -8 -33
-1 -41 1 -27 7 26 10 63 11 69 1z m651 -2 c3 -6 -5 -10 -19 -10 -14 0 -28 5
-31 10 -3 6 5 10 19 10 14 0 28 -4 31 -10z m795 1 c0 -5 -7 -11 -15 -15 -15
-5 -20 5 -8 17 9 10 23 9 23 -2z m105 -1 c3 -5 11 -10 16 -10 6 0 7 5 3 12 -5
8 -2 9 10 5 10 -4 27 -7 39 -8 18 0 16 -3 -10 -15 -22 -9 -39 -11 -55 -4 -13
5 -18 9 -13 10 6 1 1 5 -10 10 -16 7 -17 9 -3 9 9 1 20 -3 23 -9z m-1750 -21
c15 -14 -59 -11 -79 4 -15 11 -11 12 26 9 24 -2 47 -8 53 -13z m405 11 c0 -5
-4 -10 -10 -10 -5 0 -10 5 -10 10 0 6 5 10 10 10 6 0 10 -4 10 -10z m168 1
c18 -11 -27 -20 -54 -11 -17 7 -16 8 6 12 14 3 27 6 30 6 3 1 11 -2 18 -7z
m1107 -1 c3 -6 -1 -7 -9 -4 -18 7 -21 14 -7 14 6 0 13 -4 16 -10z m282 -5 c1
-5 -8 -11 -21 -11 -18 -1 -23 2 -19 13 6 15 34 14 40 -2z m68 -4 c-3 -6 -11
-11 -17 -11 -6 0 -6 6 2 15 14 17 26 13 15 -4z m130 -2 c-10 -15 -25 -10 -19
6 4 8 10 12 15 9 5 -3 7 -10 4 -15z m-2265 7 c0 -2 -13 -6 -30 -8 -16 -3 -30
-1 -30 4 0 4 14 8 30 8 17 0 30 -2 30 -4z m395 -6 c-3 -5 -10 -10 -16 -10 -5
0 -9 5 -9 10 0 6 7 10 16 10 8 0 12 -4 9 -10z m80 0 c3 -5 1 -10 -4 -10 -6 0
-11 5 -11 10 0 6 2 10 4 10 3 0 8 -4 11 -10z m532 4 c-3 -3 -12 -4 -19 -1 -8
3 -5 6 6 6 11 1 17 -2 13 -5z m2261 -8 c3 -3 -29 -6 -72 -6 -48 0 -75 4 -71
10 6 10 132 6 143 -4z m-3111 -2 c-3 -3 -12 -4 -19 -1 -8 3 -5 6 6 6 11 1 17
-2 13 -5z m1113 -10 c0 -8 -4 -12 -10 -9 -5 3 -10 10 -10 16 0 5 5 9 10 9 6 0
10 -7 10 -16z m2119 12 c-8 -8 -98 -10 -105 -3 -4 4 19 7 51 7 32 0 56 -2 54
-4z m54 -3 c-7 -2 -21 -2 -30 0 -10 3 -4 5 12 5 17 0 24 -2 18 -5z m-3783 -18
c0 -8 -7 -15 -15 -15 -16 0 -20 12 -8 23 11 12 23 8 23 -8z m1720 4 c0 -12
-38 -21 -60 -14 -32 10 -23 20 20 20 22 1 40 -2 40 -6z m1350 1 c0 -5 -7 -10
-16 -10 -8 0 -12 5 -9 10 3 6 10 10 16 10 5 0 9 -4 9 -10z m-1650 -10 c0 -5
-4 -10 -10 -10 -5 0 -10 5 -10 10 0 6 5 10 10 10 6 0 10 -4 10 -10z m1850 -11
c0 -12 -37 -12 -44 0 -3 4 -3 11 0 14 8 7 44 -4 44 -14z m305 11 c9 -14 -17
-22 -57 -18 l-33 4 35 11 c46 15 48 15 55 3z m-2875 -4 c0 -3 -4 -8 -10 -11
-5 -3 -10 -1 -10 4 0 6 5 11 10 11 6 0 10 -2 10 -4z m3058 -1 c-10 -10 -118
-14 -118 -5 0 6 28 10 62 10 34 0 59 -2 56 -5z m-3281 -27 c-3 -8 -6 -5 -6 6
-1 11 2 17 5 13 3 -3 4 -12 1 -19z m1883 12 c0 -5 -4 -10 -10 -10 -5 0 -10 5
-10 10 0 6 5 10 10 10 6 0 10 -4 10 -10z m17 -12 c-3 -8 -6 -5 -6 6 -1 11 2
17 5 13 3 -3 4 -12 1 -19z m30 -10 c-3 -7 -5 -2 -5 12 0 14 2 19 5 13 2 -7 2
-19 0 -25z m33 22 c0 -5 7 -10 16 -10 8 0 12 -4 9 -10 -12 -19 -45 -11 -45 10
0 11 5 20 10 20 6 0 10 -4 10 -10z m-1441 -17 c0 -10 -3 -13 -5 -6 -3 7 -12 9
-21 6 -11 -4 -14 -2 -9 5 11 18 36 14 35 -5z m141 7 c24 -1 24 -1 5 -12 -28
-17 -44 -19 -91 -13 -28 4 -41 11 -41 22 0 13 9 14 51 9 28 -3 62 -6 76 -6z
m1010 0 c0 -5 -2 -10 -4 -10 -3 0 -8 5 -11 10 -3 6 -1 10 4 10 6 0 11 -4 11
-10z m864 -5 c3 -8 12 -15 20 -15 7 0 17 -7 20 -16 6 -15 4 -15 -19 0 -22 14
-25 15 -25 1 0 -28 -15 -15 -17 15 -2 31 11 41 21 15z m61 6 c7 -12 -12 -24
-25 -16 -11 7 -4 25 10 25 5 0 11 -4 15 -9z m142 -5 c-2 -6 -10 -11 -18 -12
-8 0 -24 -2 -36 -2 -13 -1 -23 -8 -23 -16 0 -8 -14 -16 -32 -18 l-32 -5 30 23
c19 16 24 24 14 25 -25 2 30 14 66 15 20 0 33 -4 31 -10z m98 -6 c3 -5 -3 -10
-14 -10 -12 0 -21 5 -21 10 0 6 6 10 14 10 8 0 18 -4 21 -10z m-3550 -18 c-3
-3 -11 0 -18 7 -9 10 -8 11 6 5 10 -3 15 -9 12 -12z m783 6 c12 0 22 -4 22 -9
0 -15 -40 -15 -130 0 -30 5 -59 5 -65 1 -13 -11 -166 -33 -196 -28 -15 2 3 9
46 17 39 8 77 18 85 23 8 5 59 6 115 2 55 -4 110 -7 123 -6z m2082 2 c-20 -13
-57 -13 -65 0 -4 6 11 10 37 10 31 0 39 -3 28 -10z m-2019 -13 c-1 -12 -15 -9
-19 4 -3 6 1 10 8 8 6 -3 11 -8 11 -12z m2361 -19 c-5 -5 -20 -8 -33 -6 l-24
5 25 10 c28 12 47 6 32 -9z m-1182 8 c0 -2 -9 -6 -20 -9 -11 -3 -20 -1 -20 4
0 5 9 9 20 9 11 0 20 -2 20 -4z m680 -5 c0 -13 -26 -17 -72 -13 -56 6 -46 17
17 19 30 2 55 -1 55 -6z m-760 -11 c0 -5 -5 -10 -11 -10 -5 0 -7 5 -4 10 3 6
8 10 11 10 2 0 4 -4 4 -10z m117 4 c-3 -3 -12 -4 -19 -1 -8 3 -5 6 6 6 11 1
17 -2 13 -5z m910 -4 c-16 -5 -38 -5 -50 0 -17 7 -10 9 28 9 43 -1 46 -2 22
-9z m453 0 c0 -5 -9 -10 -20 -10 -11 0 -20 5 -20 10 0 6 9 10 20 10 11 0 20
-4 20 -10z m196 -36 c-3 -8 -10 -14 -16 -14 -6 0 -9 4 -6 9 4 5 0 11 -6 14 -9
3 -7 9 7 20 18 14 20 14 23 1 2 -8 1 -22 -2 -30z m220 30 c-3 -9 -6 -21 -6
-27 0 -7 -5 -4 -11 6 -11 18 -5 37 13 37 5 0 7 -7 4 -16z m39 6 c3 -5 1 -10
-4 -10 -6 0 -11 5 -11 10 0 6 2 10 4 10 3 0 8 -4 11 -10z m-1055 -4 c0 -2 -9
-6 -20 -9 -11 -3 -20 -1 -20 4 0 5 9 9 20 9 11 0 20 -2 20 -4z m1167 -11 c-2
-5 -9 -10 -15 -9 -7 1 -21 2 -32 3 -34 2 -22 16 15 16 19 0 34 -4 32 -10z
m-1245 -7 c-7 -7 -12 -23 -12 -37 0 -34 -14 -17 -16 20 -1 23 2 29 19 29 16 0
18 -3 9 -12z m971 -7 c3 -13 0 -18 -9 -15 -8 2 -21 6 -30 9 -20 6 -8 25 15 25
10 0 21 -9 24 -19z m407 3 c0 -8 -6 -11 -15 -8 -10 4 -15 0 -15 -15 0 -17 -6
-21 -31 -21 -27 0 -30 2 -19 15 7 8 18 15 25 15 7 0 15 6 18 13 7 17 37 18 37
1z m-1430 -36 c0 -5 -7 -8 -16 -8 -8 0 -13 4 -9 9 3 5 1 12 -5 16 -5 3 -10 -3
-10 -14 0 -16 -6 -21 -25 -21 -14 0 -25 5 -25 10 0 6 6 10 13 10 7 0 19 8 26
19 13 17 15 17 32 3 11 -9 19 -20 19 -24z m230 32 c0 -5 -2 -10 -4 -10 -3 0
-8 5 -11 10 -3 6 -1 10 4 10 6 0 11 -4 11 -10z m936 -17 c-10 -10 -19 5 -10
18 6 11 8 11 12 0 2 -7 1 -15 -2 -18z m654 2 c0 -14 -5 -25 -11 -25 -6 0 -9 7
-5 15 4 10 -1 15 -17 16 -21 1 -21 1 3 9 14 4 26 8 28 9 1 1 2 -10 2 -24z
m-3713 9 c-3 -3 -12 -4 -19 -1 -8 3 -5 6 6 6 11 1 17 -2 13 -5z m953 -4 c0 -5
-4 -10 -10 -10 -5 0 -10 5 -10 10 0 6 5 10 10 10 6 0 10 -4 10 -10z m115 0 c3
-5 1 -10 -4 -10 -6 0 -11 5 -11 10 0 6 2 10 4 10 3 0 8 -4 11 -10z m992 4 c-3
-3 -12 -4 -19 -1 -8 3 -5 6 6 6 11 1 17 -2 13 -5z m563 -15 c0 -5 -6 -9 -13
-9 -8 0 -14 6 -14 14 0 8 6 12 14 9 7 -3 13 -9 13 -14z m614 13 c-6 -4 -14
-16 -18 -27 -6 -13 -10 -16 -13 -7 -6 15 14 42 31 42 8 0 8 -3 0 -8z m129 -18
c-7 -19 -10 -18 -16 5 -3 13 -1 18 9 14 7 -2 10 -11 7 -19z m-4783 2 c0 -8 -4
-18 -10 -21 -5 -3 -10 3 -10 14 0 12 5 21 10 21 6 0 10 -6 10 -14z m2443 7
c-7 -2 -19 -2 -25 0 -7 3 -2 5 12 5 14 0 19 -2 13 -5z m127 -2 c0 -4 -11 -6
-25 -3 -14 2 -25 6 -25 8 0 2 11 4 25 4 14 0 25 -4 25 -9z m83 2 c-7 -2 -21
-2 -30 0 -10 3 -4 5 12 5 17 0 24 -2 18 -5z m1441 -8 c-7 -16 -24 -21 -24 -6
0 8 7 13 27 20 1 1 0 -6 -3 -14z m273 -7 c-3 -8 -6 -5 -6 6 -1 11 2 17 5 13 3
-3 4 -12 1 -19z m-988 -19 c-16 -10 -23 -4 -14 10 3 6 11 8 17 5 6 -4 5 -9 -3
-15z m-3601 -43 c-12 -6 -23 -5 -30 2 -8 8 -5 9 11 5 17 -4 21 -1 22 18 0 22
1 23 8 4 7 -15 4 -22 -11 -29z m1166 23 c8 -7 -86 -6 -152 1 -2 0 -1 4 2 8 6
10 138 3 150 -9z m246 11 c0 -5 -4 -10 -10 -10 -5 0 -10 5 -10 10 0 6 5 10 10
10 6 0 10 -4 10 -10z m850 0 c0 -5 -5 -10 -11 -10 -5 0 -7 5 -4 10 3 6 8 10
11 10 2 0 4 -4 4 -10z m1425 -8 c-3 -3 -11 0 -18 7 -9 10 -8 11 6 5 10 -3 15
-9 12 -12z m-2385 -13 c0 -5 -13 -6 -30 -2 -19 3 -30 1 -30 -6 0 -6 -10 -11
-22 -11 -17 0 -20 3 -9 9 11 7 10 10 -5 14 -10 2 -2 4 19 4 20 0 40 2 43 6 8
8 34 -3 34 -14z m3140 17 c0 -3 -4 -8 -10 -11 -5 -3 -10 -1 -10 4 0 6 5 11 10
11 6 0 10 -2 10 -4z m497 -2 c-3 -3 -12 -4 -19 -1 -8 3 -5 6 6 6 11 1 17 -2
13 -5z m113 -8 c0 -2 -7 -6 -15 -10 -8 -3 -15 -1 -15 4 0 6 7 10 15 10 8 0 15
-2 15 -4z m-4875 -31 c-16 -14 -41 -24 -55 -24 -21 1 -21 2 -5 6 11 3 27 11
35 18 14 11 38 23 50 24 3 0 -8 -11 -25 -24z m729 4 c-3 -5 -10 -7 -15 -3 -5
3 -7 10 -3 15 3 5 10 7 15 3 5 -3 7 -10 3 -15z m449 14 c-7 -2 -19 -2 -25 0
-7 3 -2 5 12 5 14 0 19 -2 13 -5z m2064 1 c-3 -3 -12 -4 -19 -1 -8 3 -5 6 6 6
11 1 17 -2 13 -5z m90 0 c-3 -3 -12 -4 -19 -1 -8 3 -5 6 6 6 11 1 17 -2 13 -5z
m743 -4 c0 -5 -4 -10 -10 -10 -5 0 -10 5 -10 10 0 6 5 10 10 10 6 0 10 -4 10
-10z m1120 0 c0 -13 -11 -13 -30 0 -12 8 -11 10 8 10 12 0 22 -4 22 -10z
m-5027 -7 c-7 -2 -19 -2 -25 0 -7 3 -2 5 12 5 14 0 19 -2 13 -5z m43 -28 c-2
-34 -15 -60 -17 -37 -5 47 -2 72 8 72 8 0 11 -13 9 -35z m194 25 c0 -5 -4 -10
-10 -10 -5 0 -10 5 -10 10 0 6 5 10 10 10 6 0 10 -4 10 -10z m370 6 c0 -3 -13
-19 -30 -37 -22 -24 -27 -36 -19 -45 14 -17 2 -35 -19 -33 -31 3 -35 -1 -19
-18 13 -15 13 -20 2 -30 -9 -8 -16 -9 -20 -3 -3 6 -1 10 5 10 6 0 8 5 5 10
-10 17 -25 11 -25 -10 0 -30 -17 -24 -28 9 -8 23 -15 28 -30 24 -11 -2 -23 0
-26 6 -4 6 0 11 8 11 9 0 16 5 16 10 0 7 -8 6 -22 -1 -42 -23 -167 -18 -207 8
-7 4 24 30 39 31 48 5 95 11 95 12 0 1 14 3 32 6 25 3 35 -1 43 -16 6 -11 20
-20 31 -20 11 0 19 -6 17 -12 -2 -7 0 -15 3 -18 9 -8 78 43 85 63 3 9 10 15
15 11 6 -3 13 3 16 15 4 17 33 32 33 17z m100 -7 c0 -6 9 -9 20 -6 11 3 22 2
25 -3 7 -12 -37 -21 -50 -10 -7 6 -15 7 -19 3 -4 -4 -4 0 0 10 7 19 24 23 24
6z m-500 -8 c0 -6 -4 -13 -10 -16 -5 -3 -10 1 -10 9 0 9 5 16 10 16 6 0 10 -4
10 -9z m448 -5 c-7 -8 -15 -12 -17 -11 -5 6 10 25 20 25 5 0 4 -6 -3 -14z
m182 4 c0 -5 -5 -10 -11 -10 -5 0 -7 5 -4 10 3 6 8 10 11 10 2 0 4 -4 4 -10z
m-660 -4 c0 -3 -4 -8 -10 -11 -5 -3 -10 -1 -10 4 0 6 5 11 10 11 6 0 10 -2 10
-4z m2889 -12 c7 -7 -3 -12 -34 -18 -17 -3 -24 -3 -17 0 6 3 12 10 12 15 0 15
-26 10 -41 -7 -9 -11 -22 -14 -42 -10 -17 3 -36 1 -43 -5 -10 -8 -14 -8 -14
-1 0 18 41 36 50 23 5 -8 15 -7 36 4 25 13 78 13 93 -1z m831 6 c0 -5 -7 -10
-15 -10 -8 0 -15 5 -15 10 0 6 7 10 15 10 8 0 15 -4 15 -10z m-2466 -20 c-10
-4 -23 -5 -28 -2 -5 3 -1 9 10 12 10 4 23 5 28 2 5 -3 1 -9 -10 -12z m151 10
c3 -5 1 -10 -4 -10 -6 0 -11 5 -11 10 0 6 2 10 4 10 3 0 8 -4 11 -10z m122 4
c-3 -3 -12 -4 -19 -1 -8 3 -5 6 6 6 11 1 17 -2 13 -5z m63 -4 c0 -5 -4 -10 -9
-10 -6 0 -13 5 -16 10 -3 6 1 10 9 10 9 0 16 -4 16 -10z m1350 6 c0 -9 -30
-14 -35 -6 -4 6 3 10 14 10 12 0 21 -2 21 -4z m70 -6 c0 -5 -5 -10 -11 -10 -5
0 -7 5 -4 10 3 6 8 10 11 10 2 0 4 -4 4 -10z m-3450 -21 c0 -11 -4 -17 -10
-14 -5 3 -10 13 -10 21 0 8 5 14 10 14 6 0 10 -9 10 -21z m364 -2 c-1 -9 2
-17 7 -17 5 0 9 4 9 9 0 6 10 8 21 6 27 -5 38 -15 17 -15 -9 0 -30 -3 -47 -6
-26 -6 -30 -4 -25 10 4 11 1 16 -10 16 -9 0 -16 5 -16 11 0 6 10 9 23 7 14 -2
21 -9 21 -21z m530 -19 c6 -4 -1 -8 -16 -8 -31 0 -34 4 -15 24 8 10 13 11 16
3 2 -7 9 -15 15 -19z m57 14 c-7 -2 -18 1 -23 6 -8 8 -4 9 13 5 13 -4 18 -8
10 -11z m39 8 c0 -5 -5 -10 -11 -10 -5 0 -7 5 -4 10 3 6 8 10 11 10 2 0 4 -4
4 -10z m1157 4 c-3 -3 -12 -4 -19 -1 -8 3 -5 6 6 6 11 1 17 -2 13 -5z m1627
-22 c2 -4 -4 -8 -14 -8 -10 0 -16 4 -14 8 3 4 9 8 14 8 5 0 11 -4 14 -8z
m-824 -12 c0 -5 -10 -10 -22 -9 -22 0 -22 1 -3 9 11 5 21 9 23 9 1 1 2 -3 2
-9z m90 4 c0 -6 -65 -34 -79 -34 -5 0 -7 8 -4 18 3 14 15 19 44 20 21 1 39 -1
39 -4z m1660 -8 c0 -3 -4 -8 -10 -11 -5 -3 -10 -1 -10 4 0 6 5 11 10 11 6 0
10 -2 10 -4z m-3809 -21 c24 -10 28 -14 14 -14 -32 -1 -65 11 -59 20 7 11 6
12 45 -6z m2259 5 c0 -5 -22 -9 -50 -9 -27 1 -47 6 -44 10 7 12 94 11 94 -1z
m-2665 -21 c5 -5 1 -9 -13 -9 -18 0 -22 -6 -22 -30 0 -16 -4 -30 -10 -30 -5 0
-10 -10 -10 -22 1 -23 1 -23 16 -3 16 19 16 19 12 -7 -3 -16 -1 -28 3 -28 5 0
9 5 9 10 0 7 29 10 76 9 71 -2 76 -3 85 -27 5 -14 8 -33 6 -41 -3 -10 -5 -8
-6 7 0 12 -3 22 -5 22 -2 0 -11 3 -19 6 -8 3 -22 -2 -31 -11 -16 -17 -89 -29
-165 -28 -30 0 -39 -2 -30 -9 10 -6 7 -7 -8 -3 -17 5 -23 2 -23 -9 0 -11 -9
-16 -30 -16 -37 0 -39 16 -3 25 15 3 32 14 39 23 8 11 24 15 49 14 27 -2 35 0
29 10 -5 7 -9 21 -9 31 -2 25 -25 47 -25 24 0 -10 -8 -17 -20 -17 -21 0 -27
15 -10 25 6 3 10 0 11 -7 1 -7 4 -2 8 12 4 14 12 25 18 25 15 0 19 5 27 38 6
24 4 27 -20 27 -18 0 -24 -4 -21 -13 9 -23 -7 -33 -43 -26 -35 6 -15 14 25 9
16 -2 17 1 7 13 -10 12 -10 16 0 21 18 7 91 -3 103 -15z m2907 -1 c-7 -7 -12
-8 -12 -2 0 14 12 26 19 19 2 -3 -1 -11 -7 -17z m-1352 2 c0 -5 -23 -10 -51
-10 -31 0 -48 4 -44 10 3 6 26 10 51 10 24 0 44 -4 44 -10z m1170 0 c0 -5 -2
-10 -4 -10 -3 0 -8 5 -11 10 -3 6 -1 10 4 10 6 0 11 -4 11 -10z m-2916 -15
c-10 -8 -34 -15 -51 -15 -18 0 -33 -4 -33 -10 0 -5 -4 -10 -10 -10 -5 0 -10 4
-10 9 0 12 65 36 109 40 10 1 9 -4 -5 -14z m3336 -1 c0 -8 -5 -12 -10 -9 -6 4
-8 11 -5 16 9 14 15 11 15 -7z m610 -5 c0 -5 -8 -9 -17 -8 -11 0 -13 3 -5 6 6
2 9 10 6 15 -4 7 -2 8 4 4 7 -4 12 -11 12 -17z m-3530 1 c0 -5 -5 -10 -11 -10
-5 0 -7 5 -4 10 3 6 8 10 11 10 2 0 4 -4 4 -10z m1570 6 c0 -11 -19 -15 -25
-6 -3 5 1 10 9 10 9 0 16 -2 16 -4z m1083 -12 c35 0 57 -3 57 -10 0 -14 -183
-10 -188 4 -4 13 28 20 53 11 11 -3 46 -6 78 -5z m172 7 c3 -6 -4 -15 -15 -21
-13 -7 -20 -7 -20 0 0 5 5 10 11 10 5 0 7 5 4 10 -3 6 -2 10 4 10 5 0 12 -4
16 -9z m60 -1 c-3 -5 -16 -10 -28 -10 -18 0 -19 2 -7 10 20 13 43 13 35 0z
m720 0 c-3 -5 -13 -10 -21 -10 -8 0 -12 5 -9 10 3 6 13 10 21 10 8 0 12 -4 9
-10z m-3711 -23 c16 3 26 1 26 -6 0 -6 -12 -11 -26 -11 -19 0 -25 -4 -20 -15
3 -9 0 -15 -9 -15 -8 0 -15 4 -15 9 0 12 -49 4 -66 -10 -15 -13 -29 40 -15 54
8 8 11 4 11 -13 0 -22 1 -23 13 -5 10 12 16 14 21 7 11 -19 26 -14 26 9 0 18
2 19 14 6 9 -8 26 -12 40 -10z m801 13 c3 -5 -1 -10 -9 -10 -9 0 -16 5 -16 10
0 6 4 10 9 10 6 0 13 -4 16 -10z m952 4 c-3 -3 -12 -4 -19 -1 -8 3 -5 6 6 6
11 1 17 -2 13 -5z m704 -5 c6 -3 -3 -9 -20 -11 -18 -3 -34 -1 -37 4 -3 5 -12
4 -19 -2 -9 -8 -14 -6 -19 5 -5 13 2 16 39 14 25 -2 50 -6 56 -10z m144 1 c4
-6 -10 -9 -37 -9 l-43 2 35 7 c19 4 36 8 37 9 1 0 5 -3 8 -9z m255 0 c0 -5 -4
-10 -10 -10 -5 0 -10 5 -10 10 0 6 5 10 10 10 6 0 10 -4 10 -10z m217 4 c-3
-3 -12 -4 -19 -1 -8 3 -5 6 6 6 11 1 17 -2 13 -5z m-2810 -10 c-3 -3 -12 -4
-19 -1 -8 3 -5 6 6 6 11 1 17 -2 13 -5z m118 -4 c13 -6 15 -9 5 -9 -8 0 -22 4
-30 9 -18 12 -2 12 25 0z m3087 -2 c-9 -9 -15 -9 -24 0 -9 9 -7 12 12 12 19 0
21 -3 12 -12z m-3802 -9 c0 -5 -5 -9 -10 -9 -6 0 -14 -10 -19 -22 -8 -21 -8
-20 -13 9 -4 27 -1 31 19 31 13 0 23 -4 23 -9z m1443 3 c36 11 63 4 40 -10
-22 -14 -86 -8 -90 8 -3 11 -2 12 4 3 7 -10 17 -10 46 -1z m2464 2 c-3 -3 -12
-4 -19 -1 -8 3 -5 6 6 6 11 1 17 -2 13 -5z m-2539 -11 c-10 -2 -26 -2 -35 0
-10 3 -2 5 17 5 19 0 27 -2 18 -5z m-728 -13 c0 -5 -13 -10 -30 -10 -16 0 -30
5 -30 10 0 6 14 10 30 10 17 0 30 -4 30 -10z m-620 -14 c0 -2 -7 -6 -15 -10
-8 -3 -15 -1 -15 4 0 6 7 10 15 10 8 0 15 -2 15 -4z m400 -6 c0 -5 -2 -10 -4
-10 -3 0 -8 5 -11 10 -3 6 -1 10 4 10 6 0 11 -4 11 -10z m76 1 c-5 -8 -56 -3
-56 5 0 2 14 4 31 4 16 0 28 -4 25 -9z m41 3 c-3 -3 -12 -4 -19 -1 -8 3 -5 6
6 6 11 1 17 -2 13 -5z m-494 -25 c-3 -12 0 -25 7 -29 18 -11 5 -27 -22 -25
-26 2 -38 25 -13 25 10 0 15 5 12 14 -3 7 0 19 6 25 15 15 16 14 10 -10z m560
4 c-7 -2 -19 -2 -25 0 -7 3 -2 5 12 5 14 0 19 -2 13 -5z m-519 -19 c4 -10 1
-14 -6 -12 -15 5 -23 28 -10 28 5 0 13 -7 16 -16z m4175 -5 c-16 -10 -23 -4
-14 10 3 6 11 8 17 5 6 -4 5 -9 -3 -15z m-1786 4 c-7 -2 -19 -2 -25 0 -7 3 -2
5 12 5 14 0 19 -2 13 -5z m-2074 -10 c-4 -22 3 -24 20 -9 14 13 33 16 70 14
28 -2 50 -7 49 -13 -2 -5 -19 -9 -38 -7 l-35 2 30 -13 c25 -11 27 -14 11 -20
-10 -4 -24 -3 -31 3 -6 5 -15 7 -18 3 -4 -3 -7 0 -7 8 -1 11 -3 11 -13 -2 -7
-9 -23 -19 -36 -24 -20 -6 -22 -4 -16 14 4 13 1 28 -5 36 -10 12 -9 15 4 15 9
0 15 -3 15 -7z m-419 -12 c0 -6 -4 -13 -10 -16 -5 -3 -10 1 -10 9 0 9 5 16 10
16 6 0 10 -4 10 -9z m2228 2 c-16 -2 -40 -2 -55 0 -16 2 -3 4 27 4 30 0 43 -2
28 -4z m2072 -3 c0 -5 -5 -10 -11 -10 -5 0 -7 5 -4 10 3 6 8 10 11 10 2 0 4
-4 4 -10z m-3683 -6 c-3 -3 -12 -4 -19 -1 -8 3 -5 6 6 6 11 1 17 -2 13 -5z
m278 -36 c-7 -18 -47 -38 -75 -38 -10 0 -21 -6 -23 -12 -3 -7 -6 3 -6 22 -1
27 2 32 10 20 8 -11 12 -12 16 -2 2 6 18 12 34 12 21 0 29 5 29 17 0 12 3 14
10 7 6 -6 8 -18 5 -26z m520 22 c17 -7 14 -9 -13 -9 -20 -1 -31 3 -27 9 7 12
13 12 40 0z m-412 -17 c-13 -2 -33 -2 -45 0 -13 2 -3 4 22 4 25 0 35 -2 23 -4z
m156 -9 c2 -2 -26 -4 -63 -4 -39 0 -65 4 -61 9 5 9 114 4 124 -5z m3106 -5
c-4 -5 -18 -8 -33 -8 -24 2 -24 2 -4 6 12 2 22 9 22 14 0 6 5 7 10 4 6 -4 8
-11 5 -16z m-3785 7 c0 -2 -7 -9 -15 -16 -13 -11 -14 -10 -9 4 5 14 24 23 24
12z m297 -42 c5 -14 -68 -25 -81 -13 -6 5 -1 9 11 9 12 0 25 5 28 11 8 13 37
8 42 -7z m-640 -16 c-3 -8 -6 -5 -6 6 -1 11 2 17 5 13 3 -3 4 -12 1 -19z m163
8 c0 -3 -4 -8 -10 -11 -5 -3 -10 -1 -10 4 0 6 5 11 10 11 6 0 10 -2 10 -4z"/>
<path d="M3720 1311 c0 -6 5 -13 10 -16 6 -3 10 1 10 9 0 9 -4 16 -10 16 -5 0
-10 -4 -10 -9z"/>
<path d="M2527 883 c-10 -9 -8 -33 2 -33 5 0 11 9 14 20 5 20 -3 26 -16 13z"/>
<path d="M2760 910 c0 -5 5 -10 10 -10 6 0 10 5 10 10 0 6 -4 10 -10 10 -5 0
-10 -4 -10 -10z"/>
<path d="M2860 780 c0 -5 5 -10 11 -10 5 0 7 5 4 10 -3 6 -8 10 -11 10 -2 0
-4 -4 -4 -10z"/>
<path d="M1645 320 c-3 -5 3 -10 15 -10 12 0 18 5 15 10 -3 6 -10 10 -15 10
-5 0 -12 -4 -15 -10z"/>
<path d="M1530 130 c-12 -8 -11 -10 8 -10 12 0 22 5 22 10 0 13 -11 13 -30 0z"/>
<path d="M4837 1446 c-70 -25 -14 -31 289 -33 350 -2 374 0 374 26 0 18 -15
19 -318 17 -175 0 -330 -5 -345 -10z"/>
<path d="M3030 1446 c0 -9 30 -14 35 -6 4 6 -3 10 -14 10 -12 0 -21 -2 -21 -4z"/>
<path d="M3098 1443 c7 -3 16 -2 19 1 4 3 -2 6 -13 5 -11 0 -14 -3 -6 -6z"/>
<path d="M3420 1435 c0 -8 9 -15 19 -15 10 0 21 7 25 15 4 11 -1 15 -19 15
-16 0 -25 -6 -25 -15z"/>
<path d="M3500 1435 c0 -11 11 -15 40 -15 31 0 38 3 34 15 -4 9 -19 15 -40 15
-24 0 -34 -5 -34 -15z"/>
<path d="M3966 1435 c7 -16 8 -17 43 -19 16 -1 25 5 27 17 2 14 -5 17 -37 17
-30 0 -37 -3 -33 -15z"/>
<path d="M4070 1436 c-22 -22 -6 -27 91 -25 72 1 104 6 115 16 7 8 14 16 14
17 0 9 -211 1 -220 -8z"/>
<path d="M4331 1437 c-6 -8 -8 -17 -4 -20 11 -11 171 -8 178 3 5 7 11 8 19 1
12 -11 195 -14 233 -5 13 4 23 12 23 19 0 10 -9 11 -37 5 -20 -5 -41 -6 -46
-3 -17 11 -132 10 -149 -1 -13 -8 -21 -7 -30 2 -14 14 -48 16 -48 2 0 -5 -9
-10 -20 -10 -11 0 -20 5 -20 10 0 15 -86 12 -99 -3z"/>
<path d="M3008 1413 c7 -3 16 -2 19 1 4 3 -2 6 -13 5 -11 0 -14 -3 -6 -6z"/>
<path d="M2185 1390 c-3 -5 -1 -10 4 -10 6 0 11 5 11 10 0 6 -2 10 -4 10 -3 0
-8 -4 -11 -10z"/>
<path d="M2318 1383 c7 -3 16 -2 19 1 4 3 -2 6 -13 5 -11 0 -14 -3 -6 -6z"/>
<path d="M2467 1378 c6 -7 13 -20 16 -28 3 -8 5 -3 4 13 -1 16 -7 27 -15 27
-10 0 -11 -4 -5 -12z"/>
<path d="M3342 1378 c-24 -5 -41 -12 -38 -15 8 -9 96 7 96 18 0 10 0 10 -58
-3z"/>
<path d="M3410 1375 c0 -8 9 -15 20 -15 11 0 20 7 20 15 0 8 -9 15 -20 15 -11
0 -20 -7 -20 -15z"/>
<path d="M3538 1383 c6 -2 18 -2 25 0 6 3 1 5 -13 5 -14 0 -19 -2 -12 -5z"/>
<path d="M3917 1383 c-4 -3 -7 -18 -6 -32 0 -14 3 -20 6 -13 2 6 14 12 26 12
22 1 22 1 -1 13 -12 7 -19 16 -16 20 4 4 5 7 2 7 -2 0 -8 -3 -11 -7z"/>
<path d="M4040 1374 c-50 -14 -28 -17 35 -6 22 4 33 10 25 13 -8 3 -35 -1 -60
-7z"/>
<path d="M4450 1380 c0 -5 10 -10 23 -10 18 0 19 2 7 10 -19 13 -30 13 -30 0z"/>
<path d="M5268 1383 c7 -3 16 -2 19 1 4 3 -2 6 -13 5 -11 0 -14 -3 -6 -6z"/>
<path d="M3940 1376 c0 -9 40 -13 46 -5 3 5 -6 9 -20 9 -14 0 -26 -2 -26 -4z"/>
<path d="M4318 1363 c6 -2 18 -2 25 0 6 3 1 5 -13 5 -14 0 -19 -2 -12 -5z"/>
<path d="M5340 1350 c0 -5 5 -10 10 -10 6 0 10 5 10 10 0 6 -4 10 -10 10 -5 0
-10 -4 -10 -10z"/>
<path d="M2133 1344 c11 -12 97 -15 97 -4 0 5 -23 10 -52 10 -28 0 -48 -3 -45
-6z"/>
<path d="M2250 1340 c20 -13 120 -13 120 0 0 6 -29 10 -67 10 -48 0 -64 -3
-53 -10z"/>
<path d="M2405 1340 c-3 -6 1 -13 9 -16 21 -8 49 3 41 16 -8 13 -42 13 -50 0z"/>
<path d="M2800 1329 c-7 -11 -9 -23 -6 -27 3 -3 6 0 6 6 0 8 20 10 63 6 34 -3
76 -1 92 5 25 8 19 9 -42 10 -39 1 -75 6 -78 11 -10 16 -23 12 -35 -11z"/>
<path d="M2685 1330 c28 -12 85 -12 85 0 0 6 -24 10 -52 9 -39 0 -48 -3 -33
-9z"/>
<path d="M3365 1320 c-3 -5 1 -10 9 -10 9 0 16 5 16 10 0 6 -4 10 -9 10 -6 0
-13 -4 -16 -10z"/>
<path d="M3410 1320 c0 -5 7 -10 15 -10 8 0 15 5 15 10 0 6 -7 10 -15 10 -8 0
-15 -4 -15 -10z"/>
<path d="M2063 1302 c-13 -2 -23 -8 -23 -13 0 -13 37 -11 45 2 9 14 5 16 -22
11z"/>
<path d="M2610 1300 c0 -6 7 -10 15 -10 8 0 15 2 15 4 0 2 -7 6 -15 10 -8 3
-15 1 -15 -4z"/>
<path d="M2853 1275 c2 -5 17 -9 33 -8 16 2 48 4 71 5 64 4 39 13 -38 13 -42
0 -68 -4 -66 -10z"/>
<path d="M5920 1250 c0 -5 7 -7 15 -4 8 4 15 8 15 10 0 2 -7 4 -15 4 -8 0 -15
-4 -15 -10z"/>
<path d="M6185 1250 c-3 -5 1 -10 10 -10 9 0 13 5 10 10 -3 6 -8 10 -10 10 -2
0 -7 -4 -10 -10z"/>
<path d="M6362 1223 c-12 -21 -69 -25 -77 -5 -4 10 -12 10 -39 -2 -19 -8 -37
-12 -39 -9 -3 3 -15 2 -28 -2 -14 -5 -17 -10 -10 -14 6 -4 -10 -7 -35 -7 -36
1 -49 -3 -58 -19 -6 -10 -20 -27 -31 -38 -20 -18 -20 -18 5 -12 14 4 34 18 45
31 21 24 65 33 65 13 0 -7 13 -9 38 -5 22 4 32 3 24 -2 -10 -6 -8 -13 8 -27
20 -18 21 -17 43 8 23 27 43 34 49 18 2 -5 20 -13 41 -16 l38 -7 -3 52 c-3 56
-19 74 -36 43z m-76 -42 c-8 -12 -46 -15 -46 -5 0 4 8 13 18 20 18 14 39 3 28
-15z"/>
<path d="M2037 1213 c-4 -3 -7 -11 -7 -17 0 -6 5 -5 12 2 6 6 9 14 7 17 -3 3
-9 2 -12 -2z"/>
<path d="M4905 1209 c-10 -15 3 -25 16 -12 7 7 7 13 1 17 -6 3 -14 1 -17 -5z"/>
<path d="M5637 1214 c-3 -4 -54 -7 -112 -7 -58 0 -104 -1 -103 -3 9 -8 109
-20 114 -13 3 5 24 6 47 3 39 -4 79 8 66 20 -3 4 -8 3 -12 0z"/>
<path d="M5978 1209 c-7 -4 8 -9 32 -11 l45 -3 -37 -19 c-39 -20 -46 -30 -29
-41 6 -3 24 9 42 26 23 22 28 34 20 42 -12 12 -57 16 -73 6z"/>
<path d="M6120 1210 c0 -5 5 -10 10 -10 6 0 10 5 10 10 0 6 -4 10 -10 10 -5 0
-10 -4 -10 -10z"/>
<path d="M2617 1203 c-10 -9 -9 -23 2 -23 5 0 11 7 15 15 5 15 -5 20 -17 8z"/>
<path d="M4112 1175 c1 -14 5 -25 9 -25 4 0 7 11 7 25 0 14 -4 25 -9 25 -5 0
-8 -11 -7 -25z"/>
<path d="M5862 1179 c-16 -25 -14 -28 26 -32 18 -2 35 -7 39 -10 10 -10 23 -8
23 3 0 6 -7 10 -15 10 -8 0 -15 5 -15 10 0 6 -11 8 -25 4 -29 -7 -33 3 -7 22
14 11 14 13 2 14 -8 0 -21 -9 -28 -21z"/>
<path d="M2587 1175 c-4 -8 -2 -17 3 -20 6 -4 10 3 10 14 0 25 -6 27 -13 6z"/>
<path d="M5025 1179 c-9 -14 -2 -20 14 -10 8 6 9 11 3 15 -6 3 -14 1 -17 -5z"/>
<path d="M5940 1180 c0 -5 5 -10 10 -10 6 0 10 5 10 10 0 6 -4 10 -10 10 -5 0
-10 -4 -10 -10z"/>
<path d="M4860 1170 c-13 -8 -12 -10 3 -10 9 0 17 5 17 10 0 12 -1 12 -20 0z"/>
<path d="M5090 1171 c0 -6 5 -13 10 -16 6 -3 10 1 10 9 0 9 -4 16 -10 16 -5 0
-10 -4 -10 -9z"/>
<path d="M4915 1160 c3 -5 15 -10 26 -10 10 0 19 5 19 10 0 6 -12 10 -26 10
-14 0 -23 -4 -19 -10z"/>
<path d="M5315 1160 c-3 -5 1 -10 9 -10 9 0 16 5 16 10 0 6 -4 10 -9 10 -6 0
-13 -4 -16 -10z"/>
<path d="M3330 1130 c0 -5 7 -7 15 -4 8 4 15 8 15 10 0 2 -7 4 -15 4 -8 0 -15
-4 -15 -10z"/>
<path d="M6120 1133 c0 -10 59 -37 66 -31 2 3 2 12 -1 19 -6 15 -65 25 -65 12z"/>
<path d="M5045 1119 c-15 -7 -11 -7 14 -3 29 5 33 4 28 -10 -8 -20 6 -21 22
-2 19 23 -24 34 -64 15z"/>
<path d="M5338 1123 c6 -2 18 -2 25 0 6 3 1 5 -13 5 -14 0 -19 -2 -12 -5z"/>
<path d="M4905 1109 c-12 -19 3 -22 27 -5 l22 16 -21 0 c-12 0 -25 -5 -28 -11z"/>
<path d="M5154 1106 c-20 -16 -18 -18 34 -29 18 -4 22 -2 18 10 -3 8 -6 19 -6
24 0 14 -24 11 -46 -5z"/>
<path d="M5265 1113 c-37 -9 -37 -21 -1 -33 29 -9 42 -9 66 2 17 7 30 16 30
20 0 10 -8 10 -48 -2 -29 -8 -32 -7 -22 5 13 15 10 16 -25 8z"/>
<path d="M6215 1110 c3 -5 8 -10 11 -10 2 0 4 5 4 10 0 6 -5 10 -11 10 -5 0
-7 -4 -4 -10z"/>
<path d="M6347 1113 c-2 -4 -1 -18 4 -30 10 -26 49 -21 49 8 0 23 -20 36 -20
12 -1 -17 -1 -17 -14 0 -8 10 -16 15 -19 10z"/>
<path d="M4870 1085 c-8 -9 -8 -15 -2 -15 12 0 26 19 19 26 -2 2 -10 -2 -17
-11z"/>
<path d="M5728 1093 c7 -3 16 -2 19 1 4 3 -2 6 -13 5 -11 0 -14 -3 -6 -6z"/>
<path d="M4690 1072 c-8 -9 -15 -20 -15 -23 0 -4 -3 -11 -7 -15 -13 -12 13
-34 41 -35 26 -1 26 -1 -4 -10 -24 -7 -20 -8 22 -5 28 2 58 -1 67 -6 10 -6 16
-5 16 2 0 6 10 8 24 4 13 -3 27 -1 30 5 4 6 16 11 27 11 10 0 19 4 19 10 0 13
-34 30 -61 30 -16 0 -20 5 -16 20 6 25 0 25 -65 0 -65 -25 -61 -25 -54 5 7 29
-2 32 -24 7z"/>
<path d="M4755 1080 c3 -5 8 -10 11 -10 2 0 4 5 4 10 0 6 -5 10 -11 10 -5 0
-7 -4 -4 -10z"/>
<path d="M4980 1080 c0 -5 4 -10 9 -10 6 0 13 5 16 10 3 6 -1 10 -9 10 -9 0
-16 -4 -16 -10z"/>
<path d="M6065 1081 c-3 -5 -1 -12 4 -15 5 -3 11 1 15 9 6 16 -9 21 -19 6z"/>
<path d="M5080 1053 c-14 -9 -27 -19 -30 -22 -9 -11 -81 -11 -75 -1 3 6 -1 10
-9 10 -8 0 -17 -8 -19 -17 -3 -11 -5 -7 -6 10 -1 37 -21 35 -21 -2 0 -17 -4
-33 -10 -36 -20 -12 -9 -25 20 -25 18 0 33 6 36 15 7 17 40 20 49 4 4 -6 13
-8 20 -5 8 3 19 -2 25 -10 7 -8 19 -14 26 -14 19 0 18 29 -1 36 -21 8 -19 31
4 44 26 14 31 13 31 -6 0 -14 2 -14 15 0 36 35 -9 51 -55 19z"/>
<path d="M1785 1020 c3 -5 14 -10 23 -10 15 0 15 2 2 10 -20 13 -33 13 -25 0z"/>
<path d="M1735 1010 c-3 -5 -2 -10 4 -10 5 0 13 5 16 10 3 6 2 10 -4 10 -5 0
-13 -4 -16 -10z"/>
<path d="M5143 996 c-30 -14 -29 -26 1 -26 19 0 24 5 23 20 -1 11 -1 19 -2 19
0 -1 -10 -6 -22 -13z"/>
<path d="M4628 993 c-10 -2 -18 -9 -18 -14 0 -14 20 -11 36 6 16 15 13 16 -18
8z"/>
<path d="M4570 970 c0 -5 5 -10 10 -10 6 0 10 5 10 10 0 6 -4 10 -10 10 -5 0
-10 -4 -10 -10z"/>
<path d="M1760 960 c20 -13 33 -13 25 0 -3 6 -14 10 -23 10 -15 0 -15 -2 -2
-10z"/>
<path d="M1935 940 c-3 -5 3 -10 14 -10 12 0 21 5 21 10 0 6 -6 10 -14 10 -8
0 -18 -4 -21 -10z"/>
<path d="M4678 933 c7 -3 16 -2 19 1 4 3 -2 6 -13 5 -11 0 -14 -3 -6 -6z"/>
<path d="M1600 920 c0 -5 4 -10 9 -10 6 0 13 5 16 10 3 6 -1 10 -9 10 -9 0
-16 -4 -16 -10z"/>
<path d="M4260 891 c0 -6 5 -13 10 -16 6 -3 10 1 10 9 0 9 -4 16 -10 16 -5 0
-10 -4 -10 -9z"/>
<path d="M1828 883 c6 -2 18 -2 25 0 6 3 1 5 -13 5 -14 0 -19 -2 -12 -5z"/>
<path d="M4471 876 c-7 -8 -22 -11 -39 -8 -23 4 -25 3 -15 -10 7 -8 10 -18 6
-21 -3 -4 8 -7 25 -7 21 0 32 5 32 14 0 8 8 17 18 19 14 4 14 5 -3 6 -17 1
-18 3 -5 11 8 5 10 10 4 10 -6 0 -17 -6 -23 -14z"/>
<path d="M1965 870 c4 -6 10 -8 15 -5 5 3 18 1 29 -5 11 -5 22 -6 25 -1 3 5
-8 11 -25 15 -43 8 -51 8 -44 -4z"/>
<path d="M4178 863 c7 -3 16 -2 19 1 4 3 -2 6 -13 5 -11 0 -14 -3 -6 -6z"/>
<path d="M4340 860 c0 -5 6 -10 14 -10 8 0 18 5 21 10 3 6 -3 10 -14 10 -12 0
-21 -4 -21 -10z"/>
<path d="M1260 820 c0 -5 5 -10 10 -10 6 0 10 5 10 10 0 6 -4 10 -10 10 -5 0
-10 -4 -10 -10z"/>
<path d="M4340 822 c0 -15 29 -24 94 -27 55 -3 96 9 96 27 0 12 -38 10 -45 -2
-6 -10 -70 -8 -117 5 -17 4 -28 3 -28 -3z"/>
<path d="M1328 813 c6 -2 18 -2 25 0 6 3 1 5 -13 5 -14 0 -19 -2 -12 -5z"/>
<path d="M1400 810 c0 -5 9 -10 20 -10 11 0 20 5 20 10 0 6 -9 10 -20 10 -11
0 -20 -4 -20 -10z"/>
<path d="M1483 803 c9 -2 23 -2 30 0 6 3 -1 5 -18 5 -16 0 -22 -2 -12 -5z"/>
<path d="M1960 793 c0 -13 5 -23 10 -23 13 0 13 11 0 30 -8 12 -10 11 -10 -7z"/>
<path d="M1300 770 c0 -5 7 -10 15 -10 8 0 15 5 15 10 0 6 -7 10 -15 10 -8 0
-15 -4 -15 -10z"/>
<path d="M1350 766 c0 -2 14 -6 30 -8 17 -3 30 -1 30 4 0 4 -13 8 -30 8 -16 0
-30 -2 -30 -4z"/>
<path d="M1448 763 c6 -2 18 -2 25 0 6 3 1 5 -13 5 -14 0 -19 -2 -12 -5z"/>
<path d="M1860 761 c0 -6 -11 -11 -25 -11 -18 0 -23 -4 -19 -15 4 -8 1 -15 -5
-15 -6 0 -11 -7 -11 -15 0 -8 5 -15 10 -15 6 0 10 5 10 11 0 16 31 38 53 39
10 0 17 5 15 12 -5 15 -28 23 -28 9z"/>
<path d="M1910 735 c0 -6 4 -16 9 -24 11 -18 41 -7 41 15 0 12 -3 14 -13 5
-10 -8 -17 -7 -25 1 -7 7 -12 8 -12 3z"/>
<path d="M4525 730 c-3 -5 -2 -10 4 -10 5 0 13 5 16 10 3 6 2 10 -4 10 -5 0
-13 -4 -16 -10z"/>
<path d="M985 720 c-3 -5 1 -10 10 -10 9 0 13 5 10 10 -3 6 -8 10 -10 10 -2 0
-7 -4 -10 -10z"/>
<path d="M1325 721 c-3 -5 -1 -12 4 -15 5 -3 11 1 15 9 6 16 -9 21 -19 6z"/>
<path d="M1380 716 c0 -24 18 -28 42 -11 13 10 16 15 8 12 -8 -2 -23 0 -32 5
-13 6 -18 5 -18 -6z"/>
<path d="M1530 715 c5 -6 7 -15 3 -18 -3 -4 -3 -7 1 -7 4 0 14 6 21 14 12 12
11 15 -10 19 -19 3 -23 1 -15 -8z"/>
<path d="M1743 723 c9 -2 23 -2 30 0 6 3 -1 5 -18 5 -16 0 -22 -2 -12 -5z"/>
<path d="M1450 710 c0 -5 4 -10 9 -10 6 0 13 5 16 10 3 6 -1 10 -9 10 -9 0
-16 -4 -16 -10z"/>
<path d="M1640 710 c0 -5 5 -10 10 -10 6 0 10 5 10 10 0 6 -4 10 -10 10 -5 0
-10 -4 -10 -10z"/>
<path d="M1597 689 c7 -7 15 -10 18 -7 3 3 -2 9 -12 12 -14 6 -15 5 -6 -5z"/>
<path d="M748 683 c6 -2 18 -2 25 0 6 3 1 5 -13 5 -14 0 -19 -2 -12 -5z"/>
<path d="M1697 661 c33 -28 14 -42 -63 -47 -111 -6 -107 -5 -86 -27 18 -17 52
-15 52 4 0 5 16 9 36 9 24 0 34 -4 31 -12 -2 -7 -14 -12 -26 -11 -11 2 -21 -2
-21 -7 0 -6 9 -10 19 -10 11 0 23 -6 28 -12 5 -9 9 -3 13 17 3 18 14 34 27 40
12 5 24 17 26 26 5 18 -25 49 -46 49 -6 -1 -2 -9 10 -19z"/>
<path d="M1752 620 c0 -14 2 -19 5 -12 2 6 2 18 0 25 -3 6 -5 1 -5 -13z"/>
<path d="M1497 605 c-4 -8 -2 -17 3 -20 6 -4 10 3 10 14 0 25 -6 27 -13 6z"/>
<path d="M1430 600 c0 -5 10 -10 23 -10 18 0 19 2 7 10 -19 13 -30 13 -30 0z"/>
<path d="M1375 580 c3 -5 8 -10 11 -10 2 0 4 5 4 10 0 6 -5 10 -11 10 -5 0 -7
-4 -4 -10z"/>
<path d="M1556 542 c-2 -4 -30 -7 -61 -6 -47 1 -53 0 -38 -10 10 -7 41 -12 68
-11 51 2 85 -8 85 -25 0 -6 -9 -10 -20 -10 -11 0 -20 4 -20 9 0 5 -20 8 -45 7
-54 -1 -60 -14 -7 -18 30 -2 38 -7 40 -25 2 -13 8 -23 14 -23 5 0 7 7 4 16 -4
10 3 18 23 25 20 7 31 19 34 37 3 15 5 28 4 29 -7 6 -77 11 -81 5z"/>
<path d="M925 530 c-3 -5 -1 -10 4 -10 6 0 11 5 11 10 0 6 -2 10 -4 10 -3 0
-8 -4 -11 -10z"/>
<path d="M1371 521 c-7 -5 -12 -13 -10 -19 3 -7 14 -3 29 8 25 20 10 29 -19
11z"/>
<path d="M768 503 c7 -3 16 -2 19 1 4 3 -2 6 -13 5 -11 0 -14 -3 -6 -6z"/>
<path d="M1210 500 c-9 -6 -10 -10 -3 -10 6 0 15 5 18 10 8 12 4 12 -15 0z"/>
<path d="M1264 495 c8 -8 18 -15 22 -15 3 0 1 7 -6 15 -7 8 -17 15 -22 15 -5
0 -3 -7 6 -15z"/>
<path d="M1410 500 c0 -5 14 -10 30 -10 17 0 30 5 30 10 0 6 -13 10 -30 10
-16 0 -30 -4 -30 -10z"/>
<path d="M1000 490 c0 -5 5 -10 11 -10 5 0 7 5 4 10 -3 6 -8 10 -11 10 -2 0
-4 -4 -4 -10z"/>
<path d="M808 483 c7 -3 16 -2 19 1 4 3 -2 6 -13 5 -11 0 -14 -3 -6 -6z"/>
<path d="M1633 437 c-3 -5 -3 -11 0 -14 8 -7 47 7 47 17 0 11 -40 9 -47 -3z"/>
<path d="M380 400 c0 -5 7 -7 15 -4 8 4 15 8 15 10 0 2 -7 4 -15 4 -8 0 -15
-4 -15 -10z"/>
<path d="M462 386 c1 -10 8 -17 13 -17 15 1 12 24 -3 29 -9 3 -13 -2 -10 -12z"/>
<path d="M500 390 c0 -5 5 -10 10 -10 6 0 10 5 10 10 0 6 -4 10 -10 10 -5 0
-10 -4 -10 -10z"/>
<path d="M580 390 c0 -5 5 -10 11 -10 5 0 7 5 4 10 -3 6 -8 10 -11 10 -2 0 -4
-4 -4 -10z"/>
<path d="M333 365 c-7 -8 -13 -20 -13 -27 1 -8 5 -7 14 5 18 24 26 21 26 -8 0
-14 3 -25 8 -25 11 0 9 54 -3 62 -14 10 -18 9 -32 -7z"/>
<path d="M728 373 c6 -2 18 -2 25 0 6 3 1 5 -13 5 -14 0 -19 -2 -12 -5z"/>
<path d="M1200 360 c0 -5 5 -10 10 -10 6 0 10 5 10 10 0 6 -4 10 -10 10 -5 0
-10 -4 -10 -10z"/>
<path d="M230 349 c0 -5 5 -7 10 -4 6 3 10 8 10 11 0 2 -4 4 -10 4 -5 0 -10
-5 -10 -11z"/>
<path d="M260 310 c0 -5 5 -10 10 -10 6 0 10 5 10 10 0 6 -4 10 -10 10 -5 0
-10 -4 -10 -10z"/>
<path d="M790 275 c-9 -11 -22 -14 -42 -10 -15 4 -28 2 -28 -3 0 -7 126 -25
163 -22 20 1 9 14 -13 15 -56 3 -70 5 -70 14 0 6 17 12 38 14 l37 4 -36 1
c-23 1 -42 -4 -49 -13z"/>
<path d="M205 270 c-3 -5 1 -10 9 -10 8 0 18 5 21 10 3 6 -1 10 -9 10 -8 0
-18 -4 -21 -10z"/>
<path d="M280 260 c0 -5 5 -10 10 -10 6 0 10 5 10 10 0 6 -4 10 -10 10 -5 0
-10 -4 -10 -10z"/>
<path d="M958 264 c-17 -17 -7 -34 20 -33 15 1 20 3 10 6 -9 2 -18 11 -20 20
-2 8 -6 11 -10 7z"/>
<path d="M1068 263 c7 -3 16 -2 19 1 4 3 -2 6 -13 5 -11 0 -14 -3 -6 -6z"/>
<path d="M148 253 c6 -2 18 -2 25 0 6 3 1 5 -13 5 -14 0 -19 -2 -12 -5z"/>
<path d="M396 235 c4 -8 7 -15 9 -15 2 0 5 7 9 15 3 9 0 15 -9 15 -9 0 -12 -6
-9 -15z"/>
<path d="M1024 236 c11 -9 28 -16 38 -16 10 0 18 -4 18 -10 0 -5 -11 -10 -25
-10 -17 0 -29 -8 -37 -25 -8 -19 -17 -24 -32 -20 -21 6 -21 6 -2 -9 37 -29 64
-16 57 27 0 4 6 7 15 7 8 0 12 -5 9 -10 -8 -13 13 -40 31 -40 17 0 18 36 2 44
-10 5 -10 7 0 12 6 3 12 12 12 20 0 15 -28 29 -78 40 -26 5 -26 5 -8 -10z"/>
<path d="M1138 243 c7 -3 16 -2 19 1 4 3 -2 6 -13 5 -11 0 -14 -3 -6 -6z"/>
<path d="M18 233 c-10 -2 -18 -11 -18 -18 0 -12 7 -11 38 2 20 8 39 17 41 19
6 5 -39 3 -61 -3z"/>
<path d="M438 233 c6 -2 18 -2 25 0 6 3 1 5 -13 5 -14 0 -19 -2 -12 -5z"/>
<path d="M56 211 c-3 -5 4 -11 16 -14 25 -7 33 -3 23 12 -8 13 -32 14 -39 2z"/>
<path d="M298 213 c6 -2 18 -2 25 0 6 3 1 5 -13 5 -14 0 -19 -2 -12 -5z"/>
<path d="M146 195 c-4 -12 4 -13 86 -14 15 -1 29 -4 32 -9 2 -4 23 -6 45 -4
23 2 38 8 35 14 -3 5 -12 7 -19 4 -8 -3 -28 -1 -47 4 -62 15 -127 18 -132 5z"/>
<path d="M372 178 c5 -15 28 -23 28 -10 0 5 -7 13 -16 16 -10 4 -14 1 -12 -6z"/>
<path d="M0 170 c0 -5 4 -10 9 -10 6 0 13 5 16 10 3 6 -1 10 -9 10 -9 0 -16
-4 -16 -10z"/>
<path d="M450 161 c0 -12 59 -11 66 1 3 4 -11 8 -30 8 -20 0 -36 -4 -36 -9z"/>
<path d="M560 150 c0 -5 7 -10 15 -10 8 0 15 5 15 10 0 6 -7 10 -15 10 -8 0
-15 -4 -15 -10z"/>
<path d="M623 149 c-13 -4 -9 -8 14 -17 36 -12 76 -5 70 12 -4 12 -56 15 -84
5z"/>
<path d="M424 114 c3 -9 6 -19 6 -24 0 -5 9 -8 20 -7 24 2 27 17 4 17 -10 0
-14 6 -10 15 3 9 0 15 -10 15 -11 0 -14 -6 -10 -16z"/>
<path d="M728 123 c7 -3 16 -2 19 1 4 3 -2 6 -13 5 -11 0 -14 -3 -6 -6z"/>
<path d="M816 120 c11 -11 263 -44 272 -36 2 3 2 12 -1 20 -4 10 -20 13 -57
12 -28 -1 -53 1 -56 6 -3 4 -42 8 -87 8 -55 0 -78 -3 -71 -10z"/>
<path d="M480 109 c0 -5 5 -7 10 -4 6 3 10 8 10 11 0 2 -4 4 -10 4 -5 0 -10
-5 -10 -11z"/>
<path d="M1107 113 c-11 -10 -8 -20 7 -26 10 -4 12 0 9 14 -6 21 -7 22 -16 12z"/>
<path d="M135 100 c-3 -5 -2 -10 4 -10 5 0 13 5 16 10 3 6 2 10 -4 10 -5 0
-13 -4 -16 -10z"/>
<path d="M361 89 c11 -21 10 -22 -25 -16 -20 3 -36 2 -36 -4 0 -5 14 -9 31 -9
16 0 28 -4 24 -9 -3 -6 -15 -7 -28 -4 -12 2 -47 6 -77 8 -30 1 -89 7 -130 13
-69 10 -90 9 -78 -3 8 -8 167 -34 256 -41 45 -4 85 -10 87 -14 10 -16 57 4 66
27 6 17 14 23 25 19 8 -3 12 -2 9 4 -9 15 -47 12 -69 -5 -23 -17 -36 -19 -36
-5 0 6 9 10 21 10 15 0 19 4 15 16 -3 9 -6 20 -6 26 0 6 -7 4 -17 -3 -13 -11
-17 -11 -20 -1 -3 6 -9 12 -14 12 -6 0 -5 -9 2 -21z"/>
<path d="M522 98 c-20 -20 -14 -31 13 -24 23 6 25 4 25 -25 0 -18 -3 -29 -7
-25 -5 4 -8 13 -8 18 0 18 -22 20 -38 3 -9 -8 -20 -15 -26 -15 -6 0 -11 -4
-11 -9 0 -19 164 -29 176 -10 3 6 28 9 58 7 46 -3 51 -1 48 17 -6 41 -14 51
-21 27 l-6 -23 -32 30 c-18 16 -42 29 -53 28 -24 -2 -27 -17 -4 -17 11 0 14
-5 10 -16 -3 -9 -6 -17 -6 -19 0 -2 -9 -1 -20 2 -11 3 -20 11 -20 18 0 7 -11
16 -25 19 -14 4 -25 11 -25 16 0 14 -13 13 -28 -2z m74 -68 c8 0 14 -4 14 -9
0 -5 -9 -7 -20 -4 -11 3 -20 13 -19 22 0 10 2 11 6 4 2 -7 11 -13 19 -13z"/>
<path d="M590 99 c0 -5 5 -7 10 -4 6 3 10 8 10 11 0 2 -4 4 -10 4 -5 0 -10 -5
-10 -11z"/>
<path d="M0 70 c0 -5 5 -10 11 -10 5 0 7 5 4 10 -8 13 -15 13 -15 0z"/>
<path d="M835 57 c5 -23 2 -28 -12 -27 -40 5 -47 -1 -19 -16 24 -13 30 -14 37
-2 12 18 11 40 -2 58 -8 11 -9 8 -4 -13z"/>
<path d="M925 50 c3 -5 8 -10 11 -10 2 0 4 5 4 10 0 6 -5 10 -11 10 -5 0 -7
-4 -4 -10z"/>
<path d="M940 15 c0 -8 5 -15 10 -15 6 0 10 7 10 15 0 8 -4 15 -10 15 -5 0
-10 -7 -10 -15z"/>
</g>
</svg>
