<svg xmlns="http://www.w3.org/2000/svg" xmlns:xlink="http://www.w3.org/1999/xlink" viewBox="0,0,256,256" width="48px" height="48px" fill-rule="nonzero"><g fill="#7677a4" fill-rule="nonzero" stroke="none" stroke-width="1" stroke-linecap="butt" stroke-linejoin="miter" stroke-miterlimit="10" stroke-dasharray="" stroke-dashoffset="0" font-family="none" font-weight="none" font-size="none" text-anchor="none" style="mix-blend-mode: normal"><g transform="scale(5.33333,5.33333)"><path d="M11.5,6c-3.032,0 -5.5,2.468 -5.5,5.5v25c0,1.005 0.27505,1.94581 0.74805,2.75781l14.43945,-14.12109c1.576,-1.527 4.04895,-1.529 5.62695,0l14.43359,14.125c0.474,-0.813 0.75195,-1.75472 0.75195,-2.76172v-25c0,-3.032 -2.468,-5.5 -5.5,-5.5zM30.5,14c1.933,0 3.5,1.567 3.5,3.5c0,1.933 -1.567,3.5 -3.5,3.5c-1.933,0 -3.5,-1.567 -3.5,-3.5c0,-1.933 1.567,-3.5 3.5,-3.5zM24,26.99414c-0.26175,-0.00013 -0.52356,0.09938 -0.72656,0.29688l-14.36523,14.05664c0.772,0.415 1.6548,0.65234 2.5918,0.65234h25c0.935,0 1.81589,-0.23544 2.58789,-0.64844l-14.35937,-14.05859c-0.204,-0.198 -0.46677,-0.2987 -0.72852,-0.29883z"></path></g></g></svg>